RecursiveTrio-TextMedium.ufo
<glyph name="B" format="1">
  <advance width="600"/>
  <unicode hex="0042"/>
  <outline>
    <contour>
      <point x="35" y="700" type="curve"/>
      <point x="35" y="681" type="line" smooth="yes"/>
      <point x="35" y="645"/>
      <point x="39" y="611"/>
      <point x="53" y="597" type="curve" smooth="yes"/>
      <point x="58" y="592"/>
      <point x="63" y="590"/>
      <point x="69" y="590" type="curve" smooth="yes"/>
      <point x="78" y="590"/>
      <point x="88" y="592"/>
      <point x="111" y="597" type="curve" smooth="yes"/>
      <point x="156" y="606"/>
      <point x="217" y="610"/>
      <point x="311" y="610" type="curve" smooth="yes"/>
      <point x="384" y="610"/>
      <point x="426" y="601"/>
      <point x="472" y="567" type="curve"/>
      <point x="494" y="589"/>
      <point x="493" y="636"/>
      <point x="474" y="656" type="curve" smooth="yes"/>
      <point x="424" y="705"/>
      <point x="378" y="720"/>
      <point x="297" y="720" type="curve" smooth="yes"/>
      <point x="207" y="720"/>
      <point x="127" y="715"/>
    </contour>
    <contour>
      <point x="201" y="20" type="line"/>
      <point x="201" y="212"/>
      <point x="201" y="445"/>
      <point x="201" y="636" type="curve" smooth="yes"/>
      <point x="201" y="643"/>
      <point x="199" y="646"/>
      <point x="194" y="651" type="curve" smooth="yes"/>
      <point x="183" y="662"/>
      <point x="139" y="672"/>
      <point x="104" y="672" type="curve" smooth="yes"/>
      <point x="85" y="672" type="line"/>
      <point x="85" y="532"/>
      <point x="85" y="362"/>
      <point x="85" y="222" type="curve" smooth="yes"/>
      <point x="85" y="168"/>
      <point x="85" y="117"/>
      <point x="85" y="63" type="curve" smooth="yes"/>
      <point x="85" y="39"/>
      <point x="140" y="20"/>
      <point x="182" y="20" type="curve" smooth="yes"/>
    </contour>
    <contour>
      <point x="534" y="485" type="curve" smooth="yes"/>
      <point x="534" y="526" type="line" smooth="yes"/>
      <point x="534" y="571"/>
      <point x="517" y="615"/>
      <point x="474" y="656" type="curve" smooth="yes"/>
      <point x="441" y="687"/>
      <point x="391" y="688"/>
      <point x="359" y="661" type="curve"/>
      <point x="406" y="625"/>
      <point x="424" y="586"/>
      <point x="424" y="513" type="curve" smooth="yes"/>
      <point x="424" y="483" type="line" smooth="yes"/>
      <point x="424" y="398"/>
      <point x="347" y="364"/>
      <point x="240" y="364" type="curve" smooth="yes"/>
      <point x="205" y="364"/>
      <point x="193" y="368"/>
      <point x="171" y="380" type="curve"/>
      <point x="162" y="372"/>
      <point x="158" y="359"/>
      <point x="158" y="346" type="curve" smooth="yes"/>
      <point x="158" y="310"/>
      <point x="197" y="275"/>
      <point x="239" y="275" type="curve" smooth="yes"/>
      <point x="399" y="275"/>
      <point x="534" y="347"/>
    </contour>
    <contour>
      <point x="522" y="180" type="curve" smooth="yes"/>
      <point x="522" y="209" type="line" smooth="yes"/>
      <point x="522" y="255"/>
      <point x="501" y="298"/>
      <point x="450" y="336" type="curve" smooth="yes"/>
      <point x="419" y="362"/>
      <point x="380" y="353"/>
      <point x="353" y="335" type="curve"/>
      <point x="397" y="301"/>
      <point x="412" y="273"/>
      <point x="412" y="220" type="curve" smooth="yes"/>
      <point x="412" y="190" type="line" smooth="yes"/>
      <point x="412" y="128"/>
      <point x="343" y="97"/>
      <point x="259" y="97" type="curve" smooth="yes"/>
      <point x="176" y="97"/>
      <point x="142" y="104"/>
      <point x="102" y="120" type="curve"/>
      <point x="89" y="103"/>
      <point x="85" y="80"/>
      <point x="85" y="63" type="curve" smooth="yes"/>
      <point x="85" y="26"/>
      <point x="161" y="-10"/>
      <point x="262" y="-10" type="curve" smooth="yes"/>
      <point x="397" y="-10"/>
      <point x="522" y="60"/>
    </contour>
  </outline>
</glyph>
<glyph name="C" format="1">
  <advance width="600"/>
  <unicode hex="0043"/>
  <outline>
    <contour>
      <point x="525" y="413" type="line"/>
      <point x="525" y="576" type="line" smooth="yes"/>
      <point x="525" y="610"/>
      <point x="513" y="643"/>
      <point x="483" y="673" type="curve" smooth="yes"/>
      <point x="453" y="702"/>
      <point x="420" y="698"/>
      <point x="405" y="672" type="curve"/>
      <point x="416" y="655"/>
      <point x="425" y="623"/>
      <point x="425" y="597" type="curve" smooth="yes"/>
      <point x="425" y="452" type="line" smooth="yes"/>
      <point x="425" y="446"/>
      <point x="427" y="442"/>
      <point x="432" y="437" type="curve" smooth="yes"/>
      <point x="448" y="421"/>
      <point x="474" y="413"/>
      <point x="508" y="413" type="curve" smooth="yes"/>
    </contour>
    <contour>
      <point x="388" y="720" type="curve" smooth="yes"/>
      <point x="217" y="720"/>
      <point x="73" y="499"/>
      <point x="73" y="258" type="curve" smooth="yes"/>
      <point x="73" y="236" type="line" smooth="yes"/>
      <point x="73" y="183"/>
      <point x="125" y="124"/>
      <point x="189" y="115" type="curve"/>
      <point x="177" y="152"/>
      <point x="172" y="197"/>
      <point x="172" y="232" type="curve"/>
      <point x="172" y="247" type="line"/>
      <point x="172" y="444"/>
      <point x="285" y="621"/>
      <point x="389" y="621" type="curve" smooth="yes"/>
      <point x="416" y="621"/>
      <point x="440" y="612"/>
      <point x="466" y="595" type="curve"/>
      <point x="498" y="613"/>
      <point x="507" y="648"/>
      <point x="483" y="673" type="curve"/>
      <point x="456" y="700"/>
      <point x="425" y="720"/>
    </contour>
    <contour>
      <point x="326" y="-20" type="curve" smooth="yes"/>
      <point x="453" y="-20"/>
      <point x="550" y="37"/>
      <point x="550" y="89" type="curve" smooth="yes"/>
      <point x="550" y="125"/>
      <point x="550" y="155"/>
      <point x="550" y="172" type="curve"/>
      <point x="532" y="172" type="line"/>
      <point x="482" y="107"/>
      <point x="419" y="80"/>
      <point x="326" y="80" type="curve" smooth="yes"/>
      <point x="205" y="80"/>
      <point x="158" y="155"/>
      <point x="158" y="284" type="curve"/>
      <point x="108" y="285"/>
      <point x="73" y="275"/>
      <point x="73" y="252" type="curve" smooth="yes"/>
      <point x="73" y="236" type="line" smooth="yes"/>
      <point x="73" y="94"/>
      <point x="165" y="-20"/>
    </contour>
  </outline>
</glyph>
<glyph name="D" format="1">
  <advance width="600"/>
  <unicode hex="0044"/>
  <outline>
    <contour>
      <point x="38" y="700" type="curve"/>
      <point x="38" y="683" type="line" smooth="yes"/>
      <point x="38" y="650"/>
      <point x="42" y="620"/>
      <point x="55" y="607" type="curve" smooth="yes"/>
      <point x="60" y="602"/>
      <point x="64" y="600"/>
      <point x="70" y="600" type="curve" smooth="yes"/>
      <point x="79" y="600"/>
      <point x="89" y="602"/>
      <point x="110" y="606" type="curve" smooth="yes"/>
      <point x="151" y="614"/>
      <point x="209" y="620"/>
      <point x="288" y="620" type="curve" smooth="yes"/>
      <point x="367" y="620"/>
      <point x="408" y="605"/>
      <point x="461" y="564" type="curve"/>
      <point x="477" y="581"/>
      <point x="478" y="632"/>
      <point x="458" y="653" type="curve" smooth="yes"/>
      <point x="407" y="703"/>
      <point x="359" y="720"/>
      <point x="276" y="720" type="curve" smooth="yes"/>
      <point x="195" y="720"/>
      <point x="123" y="714"/>
    </contour>
    <contour>
      <point x="193" y="25" type="curve"/>
      <point x="193" y="206"/>
      <point x="193" y="459"/>
      <point x="193" y="641" type="curve" smooth="yes"/>
      <point x="193" y="648"/>
      <point x="191" y="651"/>
      <point x="186" y="656" type="curve" smooth="yes"/>
      <point x="175" y="667"/>
      <point x="137" y="675"/>
      <point x="105" y="675" type="curve" smooth="yes"/>
      <point x="88" y="675" type="line"/>
      <point x="88" y="540"/>
      <point x="88" y="348"/>
      <point x="88" y="213" type="curve" smooth="yes"/>
      <point x="88" y="165"/>
      <point x="88" y="115"/>
      <point x="88" y="67" type="curve" smooth="yes"/>
      <point x="88" y="43"/>
      <point x="136" y="25"/>
    </contour>
    <contour>
      <point x="533" y="314" type="curve" smooth="yes"/>
      <point x="533" y="418" type="line" smooth="yes"/>
      <point x="533" y="500"/>
      <point x="523" y="587"/>
      <point x="458" y="653" type="curve" smooth="yes"/>
      <point x="429" y="682"/>
      <point x="381" y="685"/>
      <point x="350" y="658" type="curve"/>
      <point x="418" y="605"/>
      <point x="433" y="531"/>
      <point x="433" y="406" type="curve" smooth="yes"/>
      <point x="433" y="314" type="line" smooth="yes"/>
      <point x="433" y="179"/>
      <point x="358" y="93"/>
      <point x="236" y="93" type="curve" smooth="yes"/>
      <point x="179" y="93"/>
      <point x="150" y="100"/>
      <point x="101" y="121" type="curve"/>
      <point x="91" y="109"/>
      <point x="88" y="88"/>
      <point x="88" y="67" type="curve" smooth="yes"/>
      <point x="88" y="31"/>
      <point x="161" y="-10"/>
      <point x="246" y="-10" type="curve" smooth="yes"/>
      <point x="408" y="-10"/>
      <point x="533" y="113"/>
    </contour>
  </outline>
</glyph>
<glyph name="E" format="1">
  <advance width="600"/>
  <unicode hex="0045"/>
  <outline>
    <contour>
      <point x="35" y="700" type="curve"/>
      <point x="35" y="681" type="line" smooth="yes"/>
      <point x="35" y="646"/>
      <point x="40" y="610"/>
      <point x="53" y="597" type="curve" smooth="yes"/>
      <point x="58" y="592"/>
      <point x="61" y="590"/>
      <point x="68" y="590" type="curve"/>
      <point x="126" y="590"/>
      <point x="184" y="590"/>
      <point x="241" y="590" type="curve" smooth="yes"/>
      <point x="329" y="590"/>
      <point x="454" y="590"/>
      <point x="542" y="590" type="curve"/>
      <point x="542" y="609" type="line" smooth="yes"/>
      <point x="542" y="630"/>
      <point x="526" y="670"/>
      <point x="503" y="693" type="curve" smooth="yes"/>
      <point x="498" y="698"/>
      <point x="495" y="700"/>
      <point x="488" y="700" type="curve" smooth="yes"/>
      <point x="345" y="700"/>
      <point x="177" y="700"/>
    </contour>
    <contour>
      <point x="201" y="58" type="line"/>
      <point x="201" y="252"/>
      <point x="201" y="438"/>
      <point x="201" y="632" type="curve" smooth="yes"/>
      <point x="201" y="639"/>
      <point x="199" y="642"/>
      <point x="194" y="647" type="curve" smooth="yes"/>
      <point x="183" y="658"/>
      <point x="139" y="668"/>
      <point x="104" y="668" type="curve" smooth="yes"/>
      <point x="85" y="668" type="line"/>
      <point x="85" y="565"/>
      <point x="85" y="411"/>
      <point x="85" y="308" type="curve" smooth="yes"/>
      <point x="85" y="220"/>
      <point x="85" y="188"/>
      <point x="85" y="100" type="curve" smooth="yes"/>
      <point x="85" y="93"/>
      <point x="87" y="90"/>
      <point x="92" y="85" type="curve" smooth="yes"/>
      <point x="111" y="66"/>
      <point x="147" y="58"/>
      <point x="182" y="58" type="curve" smooth="yes"/>
    </contour>
    <contour>
      <point x="135" y="380" type="curve"/>
      <point x="135" y="361" type="line" smooth="yes"/>
      <point x="135" y="326"/>
      <point x="143" y="308"/>
      <point x="162" y="289" type="curve" smooth="yes"/>
      <point x="167" y="284"/>
      <point x="170" y="282"/>
      <point x="177" y="282" type="curve"/>
      <point x="224" y="282"/>
      <point x="206" y="282"/>
      <point x="253" y="282" type="curve" smooth="yes"/>
      <point x="329" y="282"/>
      <point x="404" y="282"/>
      <point x="480" y="282" type="curve"/>
      <point x="480" y="301" type="line" smooth="yes"/>
      <point x="480" y="322"/>
      <point x="470" y="350"/>
      <point x="447" y="373" type="curve" smooth="yes"/>
      <point x="442" y="378"/>
      <point x="439" y="380"/>
      <point x="432" y="380" type="curve" smooth="yes"/>
      <point x="313" y="380"/>
      <point x="254" y="380"/>
    </contour>
    <contour>
      <point x="85" y="110" type="curve"/>
      <point x="85" y="91" type="line" smooth="yes"/>
      <point x="85" y="56"/>
      <point x="93" y="26"/>
      <point x="112" y="7" type="curve" smooth="yes"/>
      <point x="117" y="2"/>
      <point x="120" y="0"/>
      <point x="127" y="0" type="curve"/>
      <point x="177" y="0"/>
      <point x="161" y="0"/>
      <point x="211" y="0" type="curve" smooth="yes"/>
      <point x="298" y="0"/>
      <point x="455" y="0"/>
      <point x="542" y="0" type="curve"/>
      <point x="542" y="19" type="line" smooth="yes"/>
      <point x="542" y="40"/>
      <point x="526" y="80"/>
      <point x="503" y="103" type="curve" smooth="yes"/>
      <point x="498" y="108"/>
      <point x="495" y="110"/>
      <point x="488" y="110" type="curve" smooth="yes"/>
      <point x="355" y="110"/>
      <point x="218" y="110"/>
    </contour>
  </outline>
</glyph>
<glyph name="F" format="1">
  <advance width="600"/>
  <unicode hex="0046"/>
  <outline>
    <contour>
      <point x="201" y="-10" type="line"/>
      <point x="201" y="187"/>
      <point x="201" y="435"/>
      <point x="201" y="632" type="curve" smooth="yes"/>
      <point x="201" y="639"/>
      <point x="199" y="642"/>
      <point x="194" y="647" type="curve" smooth="yes"/>
      <point x="183" y="658"/>
      <point x="139" y="668"/>
      <point x="104" y="668" type="curve" smooth="yes"/>
      <point x="85" y="668" type="line"/>
      <point x="85" y="565"/>
      <point x="85" y="411"/>
      <point x="85" y="308" type="curve" smooth="yes"/>
      <point x="85" y="217"/>
      <point x="85" y="123"/>
      <point x="85" y="32" type="curve" smooth="yes"/>
      <point x="85" y="25"/>
      <point x="87" y="22"/>
      <point x="92" y="17" type="curve" smooth="yes"/>
      <point x="111" y="-2"/>
      <point x="147" y="-10"/>
      <point x="182" y="-10" type="curve" smooth="yes"/>
    </contour>
    <contour>
      <point x="35" y="700" type="curve"/>
      <point x="35" y="681" type="line" smooth="yes"/>
      <point x="35" y="646"/>
      <point x="40" y="610"/>
      <point x="53" y="597" type="curve" smooth="yes"/>
      <point x="58" y="592"/>
      <point x="61" y="590"/>
      <point x="68" y="590" type="curve"/>
      <point x="126" y="590"/>
      <point x="184" y="590"/>
      <point x="241" y="590" type="curve" smooth="yes"/>
      <point x="329" y="590"/>
      <point x="454" y="590"/>
      <point x="542" y="590" type="curve"/>
      <point x="542" y="609" type="line" smooth="yes"/>
      <point x="542" y="630"/>
      <point x="526" y="670"/>
      <point x="503" y="693" type="curve" smooth="yes"/>
      <point x="498" y="698"/>
      <point x="495" y="700"/>
      <point x="488" y="700" type="curve" smooth="yes"/>
      <point x="345" y="700"/>
      <point x="177" y="700"/>
    </contour>
    <contour>
      <point x="117" y="330" type="curve"/>
      <point x="117" y="311" type="line" smooth="yes"/>
      <point x="117" y="276"/>
      <point x="125" y="246"/>
      <point x="144" y="227" type="curve" smooth="yes"/>
      <point x="149" y="222"/>
      <point x="152" y="220"/>
      <point x="159" y="220" type="curve"/>
      <point x="206" y="220"/>
      <point x="188" y="220"/>
      <point x="235" y="220" type="curve" smooth="yes"/>
      <point x="317" y="220"/>
      <point x="414" y="220"/>
      <point x="496" y="220" type="curve"/>
      <point x="496" y="239" type="line" smooth="yes"/>
      <point x="496" y="260"/>
      <point x="480" y="300"/>
      <point x="457" y="323" type="curve" smooth="yes"/>
      <point x="452" y="328"/>
      <point x="449" y="330"/>
      <point x="442" y="330" type="curve" smooth="yes"/>
      <point x="317" y="330"/>
      <point x="242" y="330"/>
    </contour>
  </outline>
</glyph>
<glyph name="G" format="1">
  <advance width="600"/>
  <unicode hex="0047"/>
  <outline>
    <contour>
      <point x="525" y="461" type="line"/>
      <point x="525" y="573" type="line" smooth="yes"/>
      <point x="525" y="608"/>
      <point x="513" y="640"/>
      <point x="481" y="671" type="curve" smooth="yes"/>
      <point x="449" y="703"/>
      <point x="414" y="700"/>
      <point x="396" y="673" type="curve"/>
      <point x="406" y="657"/>
      <point x="415" y="624"/>
      <point x="415" y="597" type="curve" smooth="yes"/>
      <point x="415" y="503" type="line" smooth="yes"/>
      <point x="415" y="497"/>
      <point x="416" y="493"/>
      <point x="422" y="488" type="curve" smooth="yes"/>
      <point x="440" y="470"/>
      <point x="469" y="461"/>
      <point x="506" y="461" type="curve" smooth="yes"/>
    </contour>
    <contour>
      <point x="379" y="720" type="curve" smooth="yes"/>
      <point x="212" y="720"/>
      <point x="72" y="596"/>
      <point x="72" y="345" type="curve" smooth="yes"/>
      <point x="72" y="238" type="line" smooth="yes"/>
      <point x="72" y="184"/>
      <point x="127" y="125"/>
      <point x="197" y="118" type="curve"/>
      <point x="186" y="152"/>
      <point x="180" y="196"/>
      <point x="180" y="233" type="curve" smooth="yes"/>
      <point x="180" y="340" type="line" smooth="yes"/>
      <point x="180" y="533"/>
      <point x="285" y="617"/>
      <point x="381" y="617" type="curve" smooth="yes"/>
      <point x="412" y="617"/>
      <point x="435" y="610"/>
      <point x="462" y="593" type="curve"/>
      <point x="498" y="612"/>
      <point x="508" y="645"/>
      <point x="481" y="671" type="curve"/>
      <point x="454" y="699"/>
      <point x="423" y="720"/>
    </contour>
    <contour>
      <point x="326" y="-20" type="curve" smooth="yes"/>
      <point x="444" y="-20"/>
      <point x="537" y="52"/>
      <point x="537" y="168" type="curve" smooth="yes"/>
      <point x="537" y="211"/>
      <point x="515" y="247"/>
      <point x="494" y="269" type="curve" smooth="yes"/>
      <point x="486" y="277"/>
      <point x="469" y="283"/>
      <point x="455" y="283" type="curve"/>
      <point x="459" y="268"/>
      <point x="462" y="254"/>
      <point x="462" y="236" type="curve" smooth="yes"/>
      <point x="462" y="128"/>
      <point x="401" y="90"/>
      <point x="326" y="90" type="curve" smooth="yes"/>
      <point x="211" y="90"/>
      <point x="168" y="156"/>
      <point x="168" y="294" type="curve"/>
      <point x="112" y="295"/>
      <point x="72" y="325"/>
      <point x="72" y="300" type="curve" smooth="yes"/>
      <point x="72" y="238" type="line" smooth="yes"/>
      <point x="72" y="95"/>
      <point x="163" y="-20"/>
    </contour>
    <contour>
      <point x="311" y="333" type="curve"/>
      <point x="311" y="314" type="line" smooth="yes"/>
      <point x="311" y="279"/>
      <point x="319" y="261"/>
      <point x="338" y="242" type="curve" smooth="yes"/>
      <point x="343" y="237"/>
      <point x="346" y="235"/>
      <point x="353" y="235" type="curve"/>
      <point x="400" y="235"/>
      <point x="362" y="235"/>
      <point x="409" y="235" type="curve" smooth="yes"/>
      <point x="467" y="235"/>
      <point x="518" y="235"/>
      <point x="576" y="235" type="curve"/>
      <point x="576" y="254" type="line" smooth="yes"/>
      <point x="576" y="275"/>
      <point x="566" y="303"/>
      <point x="543" y="326" type="curve" smooth="yes"/>
      <point x="538" y="331"/>
      <point x="535" y="333"/>
      <point x="528" y="333" type="curve" smooth="yes"/>
      <point x="433" y="333"/>
      <point x="405" y="333"/>
    </contour>
  </outline>
</glyph>
<glyph name="H" format="1">
  <advance width="600"/>
  <unicode hex="0048"/>
  <outline>
    <contour>
      <point x="201" y="-10" type="line"/>
      <point x="201" y="189"/>
      <point x="201" y="474"/>
      <point x="201" y="674" type="curve" smooth="yes"/>
      <point x="201" y="681"/>
      <point x="199" y="684"/>
      <point x="194" y="689" type="curve" smooth="yes"/>
      <point x="183" y="700"/>
      <point x="139" y="710"/>
      <point x="104" y="710" type="curve" smooth="yes"/>
      <point x="85" y="710" type="line"/>
      <point x="85" y="604"/>
      <point x="85" y="414"/>
      <point x="85" y="308" type="curve" smooth="yes"/>
      <point x="85" y="217"/>
      <point x="85" y="123"/>
      <point x="85" y="32" type="curve" smooth="yes"/>
      <point x="85" y="25"/>
      <point x="87" y="22"/>
      <point x="92" y="17" type="curve" smooth="yes"/>
      <point x="111" y="-2"/>
      <point x="147" y="-10"/>
      <point x="182" y="-10" type="curve" smooth="yes"/>
    </contour>
    <contour>
      <point x="521" y="-10" type="line"/>
      <point x="521" y="190"/>
      <point x="521" y="474"/>
      <point x="521" y="674" type="curve" smooth="yes"/>
      <point x="521" y="681"/>
      <point x="519" y="684"/>
      <point x="514" y="689" type="curve" smooth="yes"/>
      <point x="503" y="700"/>
      <point x="459" y="710"/>
      <point x="424" y="710" type="curve" smooth="yes"/>
      <point x="405" y="710" type="line"/>
      <point x="405" y="604"/>
      <point x="405" y="414"/>
      <point x="405" y="308" type="curve" smooth="yes"/>
      <point x="405" y="217"/>
      <point x="405" y="123"/>
      <point x="405" y="32" type="curve" smooth="yes"/>
      <point x="405" y="25"/>
      <point x="407" y="22"/>
      <point x="412" y="17" type="curve" smooth="yes"/>
      <point x="431" y="-2"/>
      <point x="467" y="-10"/>
      <point x="502" y="-10" type="curve" smooth="yes"/>
    </contour>
    <contour>
      <point x="35" y="360" type="curve"/>
      <point x="35" y="341" type="line" smooth="yes"/>
      <point x="35" y="306"/>
      <point x="43" y="276"/>
      <point x="62" y="257" type="curve" smooth="yes"/>
      <point x="67" y="252"/>
      <point x="70" y="250"/>
      <point x="77" y="250" type="curve"/>
      <point x="135" y="250"/>
      <point x="184" y="250"/>
      <point x="241" y="250" type="curve"/>
      <point x="321" y="250"/>
      <point x="412" y="250"/>
      <point x="492" y="250" type="curve"/>
      <point x="492" y="269" type="line" smooth="yes"/>
      <point x="492" y="290"/>
      <point x="476" y="330"/>
      <point x="453" y="353" type="curve" smooth="yes"/>
      <point x="448" y="358"/>
      <point x="445" y="360"/>
      <point x="438" y="360" type="curve" smooth="yes"/>
      <point x="303" y="360"/>
      <point x="169" y="360"/>
    </contour>
  </outline>
</glyph>
<glyph name="I" format="1">
  <advance width="600"/>
  <unicode hex="0049"/>
  <outline>
    <contour>
      <point x="58" y="700" type="curve"/>
      <point x="58" y="681" type="line" smooth="yes"/>
      <point x="58" y="646"/>
      <point x="66" y="616"/>
      <point x="85" y="597" type="curve" smooth="yes"/>
      <point x="90" y="592"/>
      <point x="93" y="590"/>
      <point x="100" y="590" type="curve"/>
      <point x="155" y="590"/>
      <point x="187" y="590"/>
      <point x="241" y="590" type="curve"/>
      <point x="329" y="590"/>
      <point x="454" y="590"/>
      <point x="542" y="590" type="curve"/>
      <point x="542" y="609" type="line" smooth="yes"/>
      <point x="542" y="630"/>
      <point x="526" y="670"/>
      <point x="503" y="693" type="curve" smooth="yes"/>
      <point x="498" y="698"/>
      <point x="495" y="700"/>
      <point x="488" y="700" type="curve" smooth="yes"/>
      <point x="349" y="700"/>
      <point x="197" y="700"/>
    </contour>
    <contour>
      <point x="355" y="32" type="line"/>
      <point x="355" y="226"/>
      <point x="355" y="438"/>
      <point x="355" y="632" type="curve" smooth="yes"/>
      <point x="355" y="639"/>
      <point x="353" y="642"/>
      <point x="348" y="647" type="curve" smooth="yes"/>
      <point x="337" y="658"/>
      <point x="293" y="668"/>
      <point x="258" y="668" type="curve" smooth="yes"/>
      <point x="239" y="668" type="line"/>
      <point x="239" y="565"/>
      <point x="239" y="411"/>
      <point x="239" y="308" type="curve" smooth="yes"/>
      <point x="239" y="221"/>
      <point x="239" y="161"/>
      <point x="239" y="74" type="curve" smooth="yes"/>
      <point x="239" y="67"/>
      <point x="241" y="64"/>
      <point x="246" y="59" type="curve" smooth="yes"/>
      <point x="265" y="40"/>
      <point x="301" y="32"/>
      <point x="336" y="32" type="curve" smooth="yes"/>
    </contour>
    <contour>
      <point x="58" y="110" type="curve"/>
      <point x="58" y="91" type="line" smooth="yes"/>
      <point x="58" y="56"/>
      <point x="66" y="26"/>
      <point x="85" y="7" type="curve" smooth="yes"/>
      <point x="90" y="2"/>
      <point x="93" y="0"/>
      <point x="100" y="0" type="curve"/>
      <point x="155" y="0"/>
      <point x="187" y="0"/>
      <point x="241" y="0" type="curve"/>
      <point x="329" y="0"/>
      <point x="454" y="0"/>
      <point x="542" y="0" type="curve"/>
      <point x="542" y="19" type="line" smooth="yes"/>
      <point x="542" y="40"/>
      <point x="526" y="80"/>
      <point x="503" y="103" type="curve" smooth="yes"/>
      <point x="498" y="108"/>
      <point x="495" y="110"/>
      <point x="488" y="110" type="curve" smooth="yes"/>
      <point x="349" y="110"/>
      <point x="197" y="110"/>
    </contour>
  </outline>
</glyph>
<glyph name="L" format="1">
  <advance width="600"/>
  <unicode hex="004C"/>
  <outline>
    <contour>
      <point x="188" y="51" type="line"/>
      <point x="188" y="241"/>
      <point x="188" y="486"/>
      <point x="188" y="676" type="curve" smooth="yes"/>
      <point x="188" y="683"/>
      <point x="186" y="686"/>
      <point x="181" y="691" type="curve" smooth="yes"/>
      <point x="170" y="702"/>
      <point x="132" y="710"/>
      <point x="100" y="710" type="curve" smooth="yes"/>
      <point x="83" y="710" type="line"/>
      <point x="83" y="605"/>
      <point x="83" y="393"/>
      <point x="83" y="288" type="curve" smooth="yes"/>
      <point x="83" y="207"/>
      <point x="83" y="171"/>
      <point x="83" y="90" type="curve" smooth="yes"/>
      <point x="83" y="84"/>
      <point x="85" y="80"/>
      <point x="89" y="76" type="curve" smooth="yes"/>
      <point x="106" y="59"/>
      <point x="138" y="51"/>
      <point x="170" y="51" type="curve" smooth="yes"/>
    </contour>
    <contour>
      <point x="83" y="100" type="curve"/>
      <point x="83" y="83" type="line" smooth="yes"/>
      <point x="83" y="51"/>
      <point x="90" y="24"/>
      <point x="107" y="7" type="curve" smooth="yes"/>
      <point x="112" y="2"/>
      <point x="115" y="0"/>
      <point x="122" y="0" type="curve"/>
      <point x="172" y="0"/>
      <point x="165" y="0"/>
      <point x="215" y="0" type="curve" smooth="yes"/>
      <point x="308" y="0"/>
      <point x="457" y="0"/>
      <point x="550" y="0" type="curve"/>
      <point x="550" y="18" type="line" smooth="yes"/>
      <point x="550" y="38"/>
      <point x="537" y="73"/>
      <point x="516" y="94" type="curve" smooth="yes"/>
      <point x="511" y="98"/>
      <point x="508" y="100"/>
      <point x="501" y="100" type="curve" smooth="yes"/>
      <point x="360" y="100"/>
      <point x="224" y="100"/>
    </contour>
  </outline>
</glyph>
<glyph name="P" format="1">
  <advance width="600"/>
  <unicode hex="0050"/>
  <outline>
    <contour>
      <point x="38" y="700" type="curve"/>
      <point x="38" y="683" type="line" smooth="yes"/>
      <point x="38" y="650"/>
      <point x="42" y="620"/>
      <point x="55" y="607" type="curve" smooth="yes"/>
      <point x="60" y="602"/>
      <point x="64" y="600"/>
      <point x="70" y="600" type="curve" smooth="yes"/>
      <point x="79" y="600"/>
      <point x="89" y="602"/>
      <point x="110" y="606" type="curve" smooth="yes"/>
      <point x="156" y="615"/>
      <point x="221" y="620"/>
      <point x="308" y="620" type="curve" smooth="yes"/>
      <point x="383" y="620"/>
      <point x="424" y="608"/>
      <point x="473" y="570" type="curve"/>
      <point x="493" y="590"/>
      <point x="493" y="633"/>
      <point x="473" y="653" type="curve" smooth="yes"/>
      <point x="423" y="703"/>
      <point x="377" y="720"/>
      <point x="296" y="720" type="curve" smooth="yes"/>
      <point x="208" y="720"/>
      <point x="131" y="715"/>
    </contour>
    <contour>
      <point x="193" y="-10" type="line"/>
      <point x="193" y="183"/>
      <point x="193" y="448"/>
      <point x="193" y="641" type="curve" smooth="yes"/>
      <point x="193" y="648"/>
      <point x="191" y="651"/>
      <point x="186" y="656" type="curve" smooth="yes"/>
      <point x="175" y="667"/>
      <point x="137" y="675"/>
      <point x="105" y="675" type="curve" smooth="yes"/>
      <point x="88" y="675" type="line"/>
      <point x="88" y="540"/>
      <point x="88" y="348"/>
      <point x="88" y="213" type="curve" smooth="yes"/>
      <point x="88" y="152"/>
      <point x="88" y="90"/>
      <point x="88" y="29" type="curve" smooth="yes"/>
      <point x="88" y="23"/>
      <point x="90" y="19"/>
      <point x="94" y="15" type="curve" smooth="yes"/>
      <point x="111" y="-3"/>
      <point x="143" y="-10"/>
      <point x="175" y="-10" type="curve" smooth="yes"/>
    </contour>
    <contour>
      <point x="533" y="464" type="curve" smooth="yes"/>
      <point x="533" y="523" type="line" smooth="yes"/>
      <point x="533" y="568"/>
      <point x="515" y="613"/>
      <point x="473" y="653" type="curve" smooth="yes"/>
      <point x="444" y="681"/>
      <point x="397" y="681"/>
      <point x="369" y="657" type="curve"/>
      <point x="414" y="623"/>
      <point x="433" y="584"/>
      <point x="433" y="511" type="curve" smooth="yes"/>
      <point x="433" y="464" type="line" smooth="yes"/>
      <point x="433" y="346"/>
      <point x="347" y="268"/>
      <point x="228" y="268" type="curve" smooth="yes"/>
      <point x="207" y="268"/>
      <point x="196" y="269"/>
      <point x="178" y="273" type="curve"/>
      <point x="173" y="267"/>
      <point x="169" y="257"/>
      <point x="169" y="247" type="curve" smooth="yes"/>
      <point x="169" y="212"/>
      <point x="217" y="165"/>
      <point x="260" y="165" type="curve" smooth="yes"/>
      <point x="405" y="165"/>
      <point x="533" y="279"/>
    </contour>
  </outline>
</glyph>
<glyph name="R" format="1">
  <advance width="600"/>
  <unicode hex="0052"/>
  <outline>
    <contour>
      <point x="35" y="700" type="curve"/>
      <point x="35" y="681" type="line" smooth="yes"/>
      <point x="35" y="645"/>
      <point x="39" y="611"/>
      <point x="53" y="597" type="curve" smooth="yes"/>
      <point x="58" y="592"/>
      <point x="63" y="590"/>
      <point x="69" y="590" type="curve" smooth="yes"/>
      <point x="78" y="590"/>
      <point x="88" y="592"/>
      <point x="111" y="597" type="curve" smooth="yes"/>
      <point x="156" y="606"/>
      <point x="217" y="610"/>
      <point x="311" y="610" type="curve" smooth="yes"/>
      <point x="384" y="610"/>
      <point x="424" y="599"/>
      <point x="472" y="563" type="curve"/>
      <point x="494" y="585"/>
      <point x="493" y="632"/>
      <point x="474" y="652" type="curve" smooth="yes"/>
      <point x="423" y="703"/>
      <point x="378" y="720"/>
      <point x="297" y="720" type="curve" smooth="yes"/>
      <point x="207" y="720"/>
      <point x="127" y="715"/>
    </contour>
    <contour>
      <point x="201" y="-10" type="line"/>
      <point x="201" y="189"/>
      <point x="201" y="436"/>
      <point x="201" y="636" type="curve" smooth="yes"/>
      <point x="201" y="643"/>
      <point x="199" y="646"/>
      <point x="194" y="651" type="curve" smooth="yes"/>
      <point x="183" y="662"/>
      <point x="139" y="672"/>
      <point x="104" y="672" type="curve" smooth="yes"/>
      <point x="85" y="672" type="line"/>
      <point x="85" y="531"/>
      <point x="85" y="359"/>
      <point x="85" y="218" type="curve" smooth="yes"/>
      <point x="85" y="157"/>
      <point x="85" y="93"/>
      <point x="85" y="32" type="curve" smooth="yes"/>
      <point x="85" y="25"/>
      <point x="87" y="22"/>
      <point x="92" y="17" type="curve" smooth="yes"/>
      <point x="111" y="-2"/>
      <point x="147" y="-10"/>
      <point x="182" y="-10" type="curve" smooth="yes"/>
    </contour>
    <contour>
      <point x="534" y="481" type="curve" smooth="yes"/>
      <point x="534" y="522" type="line" smooth="yes"/>
      <point x="534" y="567"/>
      <point x="517" y="611"/>
      <point x="474" y="652" type="curve" smooth="yes"/>
      <point x="441" y="683"/>
      <point x="391" y="684"/>
      <point x="359" y="657" type="curve"/>
      <point x="406" y="621"/>
      <point x="424" y="582"/>
      <point x="424" y="509" type="curve" smooth="yes"/>
      <point x="424" y="479" type="line" smooth="yes"/>
      <point x="424" y="356"/>
      <point x="341" y="280"/>
      <point x="224" y="280" type="curve" smooth="yes"/>
      <point x="197" y="280"/>
      <point x="188" y="282"/>
      <point x="171" y="291" type="curve"/>
      <point x="162" y="282"/>
      <point x="158" y="270"/>
      <point x="158" y="258" type="curve" smooth="yes"/>
      <point x="158" y="221"/>
      <point x="197" y="185"/>
      <point x="239" y="185" type="curve" smooth="yes"/>
      <point x="399" y="185"/>
      <point x="534" y="304"/>
    </contour>
    <contour>
      <point x="353" y="289" type="line"/>
      <point x="288" y="253"/>
      <point x="262" y="225"/>
      <point x="274" y="205" type="curve" smooth="yes"/>
      <point x="375" y="65" type="line" smooth="yes"/>
      <point x="417" y="4"/>
      <point x="454" y="-20"/>
      <point x="503" y="-20" type="curve" smooth="yes"/>
      <point x="542" y="-20"/>
      <point x="562" y="-3"/>
      <point x="562" y="30" type="curve" smooth="yes"/>
      <point x="562" y="110" type="line"/>
      <point x="549" y="110" type="line"/>
      <point x="543" y="106"/>
      <point x="533" y="102"/>
      <point x="524" y="102" type="curve" smooth="yes"/>
      <point x="490" y="102"/>
      <point x="468" y="116"/>
      <point x="446" y="151" type="curve" smooth="yes"/>
    </contour>
  </outline>
</glyph>
<glyph name="S" format="1">
  <advance width="600"/>
  <unicode hex="0053"/>
  <outline>
    <contour>
      <point x="383" y="321" type="curve" smooth="yes"/>
      <point x="293" y="353" type="line" smooth="yes"/>
      <point x="202" y="386"/>
      <point x="185" y="410"/>
      <point x="185" y="448" type="curve" smooth="yes"/>
      <point x="185" y="467"/>
      <point x="188" y="495"/>
      <point x="197" y="525" type="curve"/>
      <point x="133" y="520"/>
      <point x="78" y="496"/>
      <point x="78" y="431" type="curve" smooth="yes"/>
      <point x="78" y="369"/>
      <point x="113" y="323"/>
      <point x="260" y="269" type="curve" smooth="yes"/>
      <point x="349" y="236" type="line" smooth="yes"/>
      <point x="456" y="196"/>
      <point x="466" y="163"/>
      <point x="466" y="100" type="curve"/>
      <point x="497" y="100"/>
      <point x="540" y="136"/>
      <point x="540" y="170" type="curve"/>
      <point x="540" y="223"/>
      <point x="503" y="277"/>
    </contour>
    <contour>
      <point x="300" y="-20" type="curve" smooth="yes"/>
      <point x="448" y="-20"/>
      <point x="540" y="39"/>
      <point x="540" y="120" type="curve" smooth="yes"/>
      <point x="540" y="170" type="line" smooth="yes"/>
      <point x="540" y="184"/>
      <point x="511" y="192"/>
      <point x="476" y="192" type="curve"/>
      <point x="462" y="121"/>
      <point x="405" y="90"/>
      <point x="300" y="90" type="curve" smooth="yes"/>
      <point x="202" y="90"/>
      <point x="133" y="121"/>
      <point x="80" y="179" type="curve"/>
      <point x="61" y="179" type="line"/>
      <point x="61" y="160"/>
      <point x="61" y="126"/>
      <point x="61" y="88" type="curve" smooth="yes"/>
      <point x="61" y="35"/>
      <point x="166" y="-20"/>
    </contour>
    <contour>
      <point x="385" y="720" type="curve" smooth="yes"/>
      <point x="246" y="720"/>
      <point x="78" y="577"/>
      <point x="78" y="473" type="curve" smooth="yes"/>
      <point x="78" y="431" type="line" smooth="yes"/>
      <point x="78" y="403"/>
      <point x="133" y="376"/>
      <point x="192" y="374" type="curve"/>
      <point x="185" y="398"/>
      <point x="185" y="424"/>
      <point x="185" y="448" type="curve" smooth="yes"/>
      <point x="185" y="521"/>
      <point x="301" y="618"/>
      <point x="386" y="618" type="curve" smooth="yes"/>
      <point x="409" y="618"/>
      <point x="431" y="616"/>
      <point x="456" y="602" type="curve"/>
      <point x="498" y="623"/>
      <point x="507" y="653"/>
      <point x="479" y="680" type="curve"/>
      <point x="454" y="705"/>
      <point x="420" y="720"/>
    </contour>
    <contour>
      <point x="515" y="450" type="line"/>
      <point x="515" y="593" type="line" smooth="yes"/>
      <point x="515" y="626"/>
      <point x="507" y="653"/>
      <point x="479" y="680" type="curve" smooth="yes"/>
      <point x="450" y="710"/>
      <point x="410" y="709"/>
      <point x="390" y="680" type="curve"/>
      <point x="400" y="665"/>
      <point x="405" y="636"/>
      <point x="405" y="609" type="curve" smooth="yes"/>
      <point x="405" y="492" type="line" smooth="yes"/>
      <point x="405" y="486"/>
      <point x="406" y="483"/>
      <point x="412" y="477" type="curve" smooth="yes"/>
      <point x="430" y="459"/>
      <point x="459" y="450"/>
      <point x="496" y="450" type="curve" smooth="yes"/>
    </contour>
  </outline>
</glyph>
<glyph name="T" format="1">
  <advance width="600"/>
  <unicode hex="0054"/>
  <outline>
    <contour>
      <point x="358" y="-13" type="line"/>
      <point x="358" y="184"/>
      <point x="358" y="435"/>
      <point x="358" y="632" type="curve" smooth="yes"/>
      <point x="358" y="639"/>
      <point x="356" y="642"/>
      <point x="351" y="647" type="curve" smooth="yes"/>
      <point x="340" y="658"/>
      <point x="296" y="668"/>
      <point x="261" y="668" type="curve" smooth="yes"/>
      <point x="242" y="668" type="line"/>
      <point x="242" y="565"/>
      <point x="242" y="381"/>
      <point x="242" y="278" type="curve" smooth="yes"/>
      <point x="242" y="187"/>
      <point x="242" y="120"/>
      <point x="242" y="29" type="curve" smooth="yes"/>
      <point x="242" y="22"/>
      <point x="244" y="19"/>
      <point x="249" y="14" type="curve" smooth="yes"/>
      <point x="268" y="-5"/>
      <point x="304" y="-13"/>
      <point x="339" y="-13" type="curve" smooth="yes"/>
    </contour>
    <contour>
      <point x="38" y="700" type="curve"/>
      <point x="38" y="681" type="line" smooth="yes"/>
      <point x="38" y="646"/>
      <point x="46" y="616"/>
      <point x="65" y="597" type="curve" smooth="yes"/>
      <point x="70" y="592"/>
      <point x="73" y="590"/>
      <point x="80" y="590" type="curve"/>
      <point x="138" y="590"/>
      <point x="148" y="590"/>
      <point x="205" y="590" type="curve"/>
      <point x="297" y="590"/>
      <point x="470" y="590"/>
      <point x="562" y="590" type="curve"/>
      <point x="562" y="609" type="line" smooth="yes"/>
      <point x="562" y="630"/>
      <point x="546" y="670"/>
      <point x="523" y="693" type="curve" smooth="yes"/>
      <point x="518" y="698"/>
      <point x="515" y="700"/>
      <point x="508" y="700" type="curve" smooth="yes"/>
      <point x="362" y="700"/>
      <point x="183" y="700"/>
    </contour>
  </outline>
</glyph>
<glyph name="a" format="1">
  <advance width="600"/>
  <unicode hex="0061"/>
  <outline>
    <contour>
      <point x="230" y="551" type="curve" smooth="yes"/>
      <point x="170" y="551"/>
      <point x="122" y="539"/>
      <point x="108" y="526" type="curve" smooth="yes"/>
      <point x="100" y="518"/>
      <point x="98" y="509"/>
      <point x="98" y="498" type="curve"/>
      <point x="98" y="424" type="line"/>
      <point x="114" y="424" type="line"/>
      <point x="160" y="437"/>
      <point x="226" y="447"/>
      <point x="275" y="447" type="curve" smooth="yes"/>
      <point x="342" y="447"/>
      <point x="381" y="440"/>
      <point x="445" y="423" type="curve"/>
      <point x="460" y="447"/>
      <point x="457" y="473"/>
      <point x="418" y="511" type="curve"/>
      <point x="389" y="539"/>
      <point x="335" y="551"/>
    </contour>
    <contour>
      <point x="366" y="507" type="curve"/>
      <point x="382" y="424"/>
      <point x="379" y="367"/>
      <point x="373" y="304" type="curve" smooth="yes"/>
      <point x="373" y="231"/>
      <point x="373" y="192"/>
      <point x="373" y="134" type="curve" smooth="yes"/>
      <point x="373" y="86"/>
      <point x="381" y="65"/>
      <point x="408" y="39" type="curve"/>
      <point x="431" y="16"/>
      <point x="497" y="21"/>
      <point x="503" y="47" type="curve"/>
      <point x="490" y="64"/>
      <point x="486" y="83"/>
      <point x="486" y="113" type="curve" smooth="yes"/>
      <point x="486" y="200"/>
      <point x="486" y="251"/>
      <point x="486" y="365" type="curve" smooth="yes"/>
      <point x="486" y="416"/>
      <point x="465" y="463"/>
      <point x="418" y="511" type="curve"/>
      <point x="404" y="526"/>
      <point x="378" y="521"/>
    </contour>
    <contour>
      <point x="412" y="271" type="curve" smooth="yes"/>
      <point x="392" y="292"/>
      <point x="333" y="305"/>
      <point x="244" y="305" type="curve" smooth="yes"/>
      <point x="186" y="305"/>
      <point x="155" y="294"/>
      <point x="123" y="262" type="curve" smooth="yes"/>
      <point x="103" y="242"/>
      <point x="97" y="210"/>
      <point x="110" y="196" type="curve"/>
      <point x="143" y="222"/>
      <point x="178" y="228"/>
      <point x="227" y="228" type="curve" smooth="yes"/>
      <point x="289" y="228"/>
      <point x="379" y="226"/>
      <point x="432" y="221" type="curve"/>
      <point x="431" y="242"/>
      <point x="423" y="260"/>
    </contour>
    <contour>
      <point x="178" y="139" type="curve" smooth="yes"/>
      <point x="178" y="181" type="line" smooth="yes"/>
      <point x="178" y="242"/>
      <point x="183" y="258"/>
      <point x="208" y="283" type="curve"/>
      <point x="177" y="292"/>
      <point x="143" y="282"/>
      <point x="123" y="262" type="curve" smooth="yes"/>
      <point x="80" y="218"/>
      <point x="68" y="196"/>
      <point x="68" y="159" type="curve" smooth="yes"/>
      <point x="68" y="123" type="line" smooth="yes"/>
      <point x="68" y="29"/>
      <point x="114" y="-19"/>
      <point x="199" y="-19" type="curve" smooth="yes"/>
      <point x="281" y="-19"/>
      <point x="343" y="27"/>
      <point x="387" y="100" type="curve" smooth="yes"/>
      <point x="397" y="116"/>
      <point x="401" y="131"/>
      <point x="401" y="159" type="curve"/>
      <point x="345" y="105"/>
      <point x="302" y="85"/>
      <point x="246" y="85" type="curve" smooth="yes"/>
      <point x="224" y="85" type="line" smooth="yes"/>
      <point x="191" y="85"/>
      <point x="178" y="99"/>
    </contour>
    <contour>
      <point x="503" y="-9" type="curve" smooth="yes"/>
      <point x="545" y="-9"/>
      <point x="563" y="7"/>
      <point x="563" y="43" type="curve"/>
      <point x="563" y="111" type="line"/>
      <point x="544" y="111" type="line"/>
      <point x="531" y="109"/>
      <point x="522" y="107"/>
      <point x="504" y="107" type="curve" smooth="yes"/>
      <point x="479" y="107"/>
      <point x="450" y="108"/>
      <point x="415" y="112" type="curve"/>
      <point x="399" y="96"/>
      <point x="393" y="54"/>
      <point x="408" y="39" type="curve"/>
      <point x="435" y="12"/>
      <point x="470" y="-9"/>
    </contour>
  </outline>
</glyph>
<glyph name="b" format="1">
  <advance width="600"/>
  <unicode hex="0062"/>
  <outline>
    <contour>
      <point x="199" y="-10" type="line"/>
      <point x="199" y="220"/>
      <point x="199" y="524"/>
      <point x="199" y="724" type="curve" smooth="yes"/>
      <point x="199" y="731"/>
      <point x="197" y="734"/>
      <point x="192" y="739" type="curve" smooth="yes"/>
      <point x="181" y="750"/>
      <point x="137" y="760"/>
      <point x="102" y="760" type="curve" smooth="yes"/>
      <point x="83" y="760" type="line"/>
      <point x="83" y="618"/>
      <point x="83" y="526"/>
      <point x="83" y="384" type="curve" smooth="yes"/>
      <point x="83" y="294"/>
      <point x="83" y="122"/>
      <point x="83" y="32" type="curve" smooth="yes"/>
      <point x="83" y="25"/>
      <point x="85" y="22"/>
      <point x="90" y="17" type="curve" smooth="yes"/>
      <point x="109" y="-2"/>
      <point x="145" y="-10"/>
      <point x="180" y="-10" type="curve" smooth="yes"/>
    </contour>
    <contour>
      <point x="389" y="544" type="curve" smooth="yes"/>
      <point x="321" y="544"/>
      <point x="240" y="485"/>
      <point x="187" y="418" type="curve" smooth="yes"/>
      <point x="163" y="389"/>
      <point x="157" y="371"/>
      <point x="158" y="322" type="curve"/>
      <point x="250" y="404"/>
      <point x="308" y="428"/>
      <point x="383" y="428" type="curve" smooth="yes"/>
      <point x="437" y="428"/>
      <point x="471" y="386"/>
      <point x="497" y="322" type="curve"/>
      <point x="530" y="323"/>
      <point x="546" y="344"/>
      <point x="546" y="360" type="curve" smooth="yes"/>
      <point x="546" y="457"/>
      <point x="464" y="544"/>
    </contour>
    <contour>
      <point x="333" y="-20" type="curve" smooth="yes"/>
      <point x="471" y="-20"/>
      <point x="546" y="125"/>
      <point x="546" y="322" type="curve" smooth="yes"/>
      <point x="546" y="360" type="line" smooth="yes"/>
      <point x="546" y="406"/>
      <point x="507" y="474"/>
      <point x="458" y="474" type="curve"/>
      <point x="425" y="474"/>
      <point x="401" y="466"/>
      <point x="400" y="443" type="curve"/>
      <point x="417" y="417"/>
      <point x="427" y="393"/>
      <point x="427" y="344" type="curve" smooth="yes"/>
      <point x="427" y="322" type="line" smooth="yes"/>
      <point x="427" y="175"/>
      <point x="372" y="87"/>
      <point x="287" y="87" type="curve" smooth="yes"/>
      <point x="246" y="87"/>
      <point x="218" y="99"/>
      <point x="186" y="122" type="curve"/>
      <point x="181" y="120"/>
      <point x="179" y="116"/>
      <point x="179" y="109" type="curve"/>
      <point x="179" y="63"/>
      <point x="255" y="-20"/>
    </contour>
  </outline>
</glyph>
<glyph name="c" format="1">
  <advance width="600"/>
  <unicode hex="0063"/>
  <outline>
    <contour>
      <point x="358" y="550" type="curve" smooth="yes"/>
      <point x="194" y="550"/>
      <point x="66" y="422"/>
      <point x="66" y="245" type="curve" smooth="yes"/>
      <point x="66" y="215" type="line" smooth="yes"/>
      <point x="66" y="154"/>
      <point x="85" y="96"/>
      <point x="130" y="52" type="curve" smooth="yes"/>
      <point x="153" y="29"/>
      <point x="206" y="16"/>
      <point x="228" y="39" type="curve"/>
      <point x="204" y="77"/>
      <point x="175" y="142"/>
      <point x="175" y="202" type="curve" smooth="yes"/>
      <point x="175" y="235" type="line" smooth="yes"/>
      <point x="175" y="342"/>
      <point x="243" y="440"/>
      <point x="352" y="440" type="curve" smooth="yes"/>
      <point x="399" y="440"/>
      <point x="442" y="428"/>
      <point x="474" y="416" type="curve"/>
      <point x="499" y="429"/>
      <point x="514" y="458"/>
      <point x="477" y="494" type="curve"/>
      <point x="433" y="539"/>
      <point x="413" y="550"/>
    </contour>
    <contour>
      <point x="125" y="141" type="curve"/>
      <point x="104" y="121"/>
      <point x="102" y="80"/>
      <point x="130" y="52" type="curve" smooth="yes"/>
      <point x="176" y="5"/>
      <point x="216" y="-20"/>
      <point x="288" y="-20" type="curve" smooth="yes"/>
      <point x="328" y="-20" type="line" smooth="yes"/>
      <point x="422" y="-20"/>
      <point x="478" y="3"/>
      <point x="506" y="31" type="curve" smooth="yes"/>
      <point x="517" y="42"/>
      <point x="520" y="52"/>
      <point x="520" y="68" type="curve" smooth="yes"/>
      <point x="520" y="95"/>
      <point x="520" y="121"/>
      <point x="520" y="145" type="curve"/>
      <point x="501" y="145" type="line"/>
      <point x="461" y="103"/>
      <point x="397" y="90"/>
      <point x="300" y="90" type="curve" smooth="yes"/>
      <point x="223" y="90"/>
      <point x="171" y="104"/>
    </contour>
    <contour>
      <point x="519" y="296" type="line"/>
      <point x="519" y="408" type="line" smooth="yes"/>
      <point x="519" y="440"/>
      <point x="508" y="464"/>
      <point x="477" y="494" type="curve" smooth="yes"/>
      <point x="449" y="523"/>
      <point x="408" y="521"/>
      <point x="386" y="498" type="curve"/>
      <point x="399" y="483"/>
      <point x="409" y="444"/>
      <point x="409" y="415" type="curve" smooth="yes"/>
      <point x="409" y="338" type="line" smooth="yes"/>
      <point x="409" y="332"/>
      <point x="410" y="329"/>
      <point x="416" y="323" type="curve" smooth="yes"/>
      <point x="434" y="305"/>
      <point x="463" y="296"/>
      <point x="500" y="296" type="curve" smooth="yes"/>
    </contour>
  </outline>
</glyph>
<glyph name="d" format="1">
  <advance width="600"/>
  <unicode hex="0064"/>
  <outline>
    <contour>
      <point x="274" y="550" type="curve" smooth="yes"/>
      <point x="154" y="550"/>
      <point x="58" y="437"/>
      <point x="58" y="222" type="curve" smooth="yes"/>
      <point x="58" y="182" type="line" smooth="yes"/>
      <point x="58" y="135"/>
      <point x="97" y="65"/>
      <point x="157" y="65" type="curve"/>
      <point x="179" y="65"/>
      <point x="195" y="72"/>
      <point x="196" y="92" type="curve"/>
      <point x="183" y="115"/>
      <point x="177" y="149"/>
      <point x="177" y="210" type="curve" smooth="yes"/>
      <point x="177" y="226" type="line" smooth="yes"/>
      <point x="177" y="366"/>
      <point x="219" y="449"/>
      <point x="307" y="449" type="curve" smooth="yes"/>
      <point x="354" y="449"/>
      <point x="382" y="438"/>
      <point x="418" y="426" type="curve"/>
      <point x="427" y="429"/>
      <point x="428" y="449"/>
      <point x="420" y="462" type="curve"/>
      <point x="403" y="501"/>
      <point x="341" y="550"/>
    </contour>
    <contour>
      <point x="517" y="-10" type="line"/>
      <point x="517" y="220"/>
      <point x="517" y="524"/>
      <point x="517" y="724" type="curve" smooth="yes"/>
      <point x="517" y="731"/>
      <point x="515" y="734"/>
      <point x="510" y="739" type="curve" smooth="yes"/>
      <point x="499" y="750"/>
      <point x="455" y="760"/>
      <point x="420" y="760" type="curve" smooth="yes"/>
      <point x="401" y="760" type="line"/>
      <point x="401" y="631"/>
      <point x="401" y="549"/>
      <point x="401" y="420" type="curve" smooth="yes"/>
      <point x="401" y="318"/>
      <point x="401" y="134"/>
      <point x="401" y="32" type="curve" smooth="yes"/>
      <point x="401" y="25"/>
      <point x="403" y="22"/>
      <point x="408" y="17" type="curve" smooth="yes"/>
      <point x="427" y="-2"/>
      <point x="463" y="-10"/>
      <point x="498" y="-10" type="curve" smooth="yes"/>
    </contour>
    <contour>
      <point x="211" y="-14" type="curve" smooth="yes"/>
      <point x="276" y="-14"/>
      <point x="364" y="51"/>
      <point x="413" y="112" type="curve" smooth="yes"/>
      <point x="437" y="141"/>
      <point x="443" y="159"/>
      <point x="442" y="208" type="curve"/>
      <point x="350" y="126"/>
      <point x="292" y="102"/>
      <point x="217" y="102" type="curve" smooth="yes"/>
      <point x="158" y="102"/>
      <point x="136" y="158"/>
      <point x="102" y="230" type="curve"/>
      <point x="71" y="228"/>
      <point x="58" y="203"/>
      <point x="58" y="182" type="curve" smooth="yes"/>
      <point x="58" y="80"/>
      <point x="125" y="-14"/>
    </contour>
  </outline>
</glyph>
<glyph name="e" format="1">
  <advance width="600"/>
  <unicode hex="0065"/>
  <outline>
    <contour>
      <point x="355" y="550" type="curve"/>
      <point x="183" y="550"/>
      <point x="64" y="453"/>
      <point x="64" y="273" type="curve" smooth="yes"/>
      <point x="64" y="213" type="line"/>
      <point x="64" y="145"/>
      <point x="91" y="93"/>
      <point x="130" y="53" type="curve"/>
      <point x="153" y="30"/>
      <point x="193" y="25"/>
      <point x="224" y="45" type="curve"/>
      <point x="192" y="101"/>
      <point x="173" y="149"/>
      <point x="173" y="207" type="curve" smooth="yes"/>
      <point x="173" y="263" type="line" smooth="yes"/>
      <point x="173" y="390"/>
      <point x="241" y="440"/>
      <point x="343" y="440" type="curve" smooth="yes"/>
      <point x="396" y="440"/>
      <point x="431" y="431"/>
      <point x="457" y="402" type="curve"/>
      <point x="480" y="402"/>
      <point x="492" y="420"/>
      <point x="492" y="438" type="curve"/>
      <point x="492" y="502"/>
      <point x="417" y="550"/>
    </contour>
    <contour>
      <point x="354" y="215" type="line" smooth="yes"/>
      <point x="483" y="215"/>
      <point x="536" y="292"/>
      <point x="536" y="364" type="curve" smooth="yes"/>
      <point x="536" y="398" type="line" smooth="yes"/>
      <point x="536" y="428"/>
      <point x="522" y="459"/>
      <point x="487" y="495" type="curve" smooth="yes"/>
      <point x="452" y="529"/>
      <point x="413" y="550"/>
      <point x="367" y="550" type="curve" smooth="yes"/>
      <point x="355" y="550" type="line" smooth="yes"/>
      <point x="318" y="550"/>
      <point x="293" y="523"/>
      <point x="293" y="484" type="curve"/>
      <point x="371" y="484"/>
      <point x="426" y="457"/>
      <point x="426" y="398" type="curve" smooth="yes"/>
      <point x="426" y="361" type="line" smooth="yes"/>
      <point x="426" y="314"/>
      <point x="400" y="295"/>
      <point x="349" y="295" type="curve" smooth="yes"/>
      <point x="265" y="295"/>
      <point x="224" y="295"/>
      <point x="161" y="295" type="curve"/>
      <point x="159" y="290"/>
      <point x="159" y="285"/>
      <point x="160" y="280" type="curve"/>
      <point x="165" y="253"/>
      <point x="221" y="215"/>
      <point x="283" y="215" type="curve" smooth="yes"/>
    </contour>
    <contour>
      <point x="117" y="165" type="curve"/>
      <point x="89" y="137"/>
      <point x="100" y="84"/>
      <point x="130" y="53" type="curve"/>
      <point x="177" y="6"/>
      <point x="219" y="-20"/>
      <point x="290" y="-20" type="curve" smooth="yes"/>
      <point x="322" y="-20" type="line" smooth="yes"/>
      <point x="416" y="-20"/>
      <point x="480" y="4"/>
      <point x="506" y="32" type="curve" smooth="yes"/>
      <point x="516" y="43"/>
      <point x="520" y="54"/>
      <point x="520" y="70" type="curve"/>
      <point x="520" y="93"/>
      <point x="520" y="125"/>
      <point x="520" y="145" type="curve"/>
      <point x="501" y="145" type="line"/>
      <point x="461" y="103"/>
      <point x="397" y="90"/>
      <point x="300" y="90" type="curve" smooth="yes"/>
      <point x="220" y="90"/>
      <point x="163" y="109"/>
    </contour>
  </outline>
</glyph>
<glyph name="f" format="1">
  <advance width="600"/>
  <unicode hex="0066"/>
  <outline>
    <contour>
      <point x="249" y="626" type="curve"/>
      <point x="290" y="659"/>
      <point x="334" y="670"/>
      <point x="400" y="670" type="curve" smooth="yes"/>
      <point x="461" y="670"/>
      <point x="513" y="656"/>
      <point x="545" y="640" type="curve"/>
      <point x="563" y="640" type="line"/>
      <point x="563" y="661" type="line"/>
      <point x="563" y="694"/>
      <point x="555" y="719"/>
      <point x="545" y="731" type="curve" smooth="yes"/>
      <point x="532" y="746"/>
      <point x="478" y="763"/>
      <point x="428" y="763" type="curve"/>
      <point x="413" y="763" type="line"/>
      <point x="344" y="763"/>
      <point x="293" y="755"/>
      <point x="243" y="704" type="curve" smooth="yes"/>
      <point x="222" y="684"/>
      <point x="223" y="646"/>
    </contour>
    <contour>
      <point x="288" y="-10" type="line"/>
      <point x="288" y="179"/>
      <point x="288" y="334"/>
      <point x="288" y="500" type="curve" smooth="yes"/>
      <point x="280" y="590"/>
      <point x="274" y="646"/>
      <point x="303" y="713" type="curve"/>
      <point x="283" y="724"/>
      <point x="259" y="720"/>
      <point x="243" y="704" type="curve" smooth="yes"/>
      <point x="204" y="665"/>
      <point x="188" y="630"/>
      <point x="188" y="569" type="curve"/>
      <point x="188" y="425"/>
      <point x="188" y="227"/>
      <point x="188" y="29" type="curve"/>
      <point x="188" y="23"/>
      <point x="190" y="19"/>
      <point x="194" y="15" type="curve" smooth="yes"/>
      <point x="211" y="-3"/>
      <point x="238" y="-10"/>
      <point x="270" y="-10" type="curve" smooth="yes"/>
    </contour>
    <contour>
      <point x="38" y="475" type="curve"/>
      <point x="38" y="458" type="line" smooth="yes"/>
      <point x="38" y="424"/>
      <point x="46" y="398"/>
      <point x="62" y="382" type="curve" smooth="yes"/>
      <point x="67" y="377"/>
      <point x="71" y="375"/>
      <point x="77" y="375" type="curve"/>
      <point x="134" y="375"/>
      <point x="200" y="375"/>
      <point x="258" y="375" type="curve"/>
      <point x="316" y="375"/>
      <point x="473" y="375"/>
      <point x="525" y="375" type="curve"/>
      <point x="525" y="393" type="line" smooth="yes"/>
      <point x="525" y="427"/>
      <point x="517" y="452"/>
      <point x="501" y="469" type="curve" smooth="yes"/>
      <point x="496" y="474"/>
      <point x="492" y="475"/>
      <point x="486" y="475" type="curve" smooth="yes"/>
      <point x="379" y="475"/>
      <point x="145" y="475"/>
    </contour>
  </outline>
</glyph>
<glyph name="g" format="1">
  <advance width="600"/>
  <unicode hex="0067"/>
  <outline>
    <contour>
      <point x="317" y="453" type="curve" smooth="yes"/>
      <point x="367" y="453"/>
      <point x="412" y="442"/>
      <point x="442" y="424" type="curve"/>
      <point x="470" y="463"/>
      <point x="470" y="497"/>
      <point x="453" y="514" type="curve" smooth="yes"/>
      <point x="428" y="539"/>
      <point x="365" y="550"/>
      <point x="309" y="550" type="curve" smooth="yes"/>
      <point x="175" y="550"/>
      <point x="70" y="474"/>
      <point x="70" y="356" type="curve" smooth="yes"/>
      <point x="70" y="329" type="line" smooth="yes"/>
      <point x="70" y="284"/>
      <point x="88" y="248"/>
      <point x="129" y="206" type="curve" smooth="yes"/>
      <point x="142" y="194"/>
      <point x="202" y="190"/>
      <point x="212" y="202" type="curve"/>
      <point x="187" y="238"/>
      <point x="174" y="263"/>
      <point x="174" y="314" type="curve" smooth="yes"/>
      <point x="174" y="333" type="line" smooth="yes"/>
      <point x="174" y="420"/>
      <point x="224" y="453"/>
    </contour>
    <contour>
      <point x="295" y="249" type="curve" smooth="yes"/>
      <point x="234" y="249"/>
      <point x="170" y="256"/>
      <point x="122" y="281" type="curve"/>
      <point x="111" y="255"/>
      <point x="109" y="227"/>
      <point x="129" y="206" type="curve" smooth="yes"/>
      <point x="179" y="157"/>
      <point x="232" y="151"/>
      <point x="307" y="151" type="curve" smooth="yes"/>
      <point x="440" y="151"/>
      <point x="526" y="232"/>
      <point x="526" y="343" type="curve" smooth="yes"/>
      <point x="526" y="371" type="line" smooth="yes"/>
      <point x="526" y="418"/>
      <point x="514" y="453"/>
      <point x="453" y="514" type="curve" smooth="yes"/>
      <point x="435" y="532"/>
      <point x="387" y="526"/>
      <point x="366" y="507" type="curve"/>
      <point x="404" y="475"/>
      <point x="422" y="442"/>
      <point x="422" y="379" type="curve" smooth="yes"/>
      <point x="422" y="358" type="line" smooth="yes"/>
      <point x="422" y="290"/>
      <point x="372" y="249"/>
    </contour>
    <contour>
      <point x="170" y="58" type="curve" smooth="yes"/>
      <point x="170" y="45" type="line" smooth="yes"/>
      <point x="170" y="-12"/>
      <point x="218" y="-46"/>
      <point x="296" y="-46" type="curve" smooth="yes"/>
      <point x="413" y="-46" type="line" smooth="yes"/>
      <point x="437" y="-46"/>
      <point x="452" y="-65"/>
      <point x="452" y="-90" type="curve" smooth="yes"/>
      <point x="452" y="-122" type="line" smooth="yes"/>
      <point x="452" y="-157"/>
      <point x="449" y="-176"/>
      <point x="439" y="-202" type="curve"/>
      <point x="456" y="-205"/>
      <point x="501" y="-197"/>
      <point x="512" y="-185" type="curve" smooth="yes"/>
      <point x="548" y="-150"/>
      <point x="561" y="-123"/>
      <point x="561" y="-80" type="curve" smooth="yes"/>
      <point x="561" y="-66" type="line" smooth="yes"/>
      <point x="561" y="3"/>
      <point x="506" y="55"/>
      <point x="435" y="55" type="curve" smooth="yes"/>
      <point x="298" y="55" type="line" smooth="yes"/>
      <point x="280" y="55"/>
      <point x="274" y="61"/>
      <point x="274" y="79" type="curve" smooth="yes"/>
      <point x="274" y="107" type="line" smooth="yes"/>
      <point x="274" y="128"/>
      <point x="281" y="154"/>
      <point x="288" y="170" type="curve"/>
      <point x="288" y="176"/>
      <point x="287" y="181"/>
      <point x="282" y="185" type="curve" smooth="yes"/>
      <point x="243" y="185"/>
      <point x="170" y="112"/>
    </contour>
    <contour>
      <point x="533" y="-112" type="curve"/>
      <point x="461" y="-163"/>
      <point x="412" y="-170"/>
      <point x="332" y="-170" type="curve"/>
      <point x="250" y="-170" type="line"/>
      <point x="184" y="-170"/>
      <point x="154" y="-151"/>
      <point x="154" y="-107" type="curve" smooth="yes"/>
      <point x="154" y="-82" type="line" smooth="yes"/>
      <point x="154" y="-54"/>
      <point x="175" y="-27"/>
      <point x="231" y="-5" type="curve"/>
      <point x="231" y="8"/>
      <point x="222" y="20"/>
      <point x="209" y="20" type="curve"/>
      <point x="110" y="20"/>
      <point x="45" y="-34"/>
      <point x="45" y="-109" type="curve" smooth="yes"/>
      <point x="45" y="-125" type="line" smooth="yes"/>
      <point x="45" y="-196"/>
      <point x="120" y="-250"/>
      <point x="225" y="-250" type="curve"/>
      <point x="284" y="-250" type="line"/>
      <point x="385" y="-250"/>
      <point x="464" y="-234"/>
      <point x="512" y="-185" type="curve"/>
      <point x="538" y="-160"/>
      <point x="547" y="-126"/>
    </contour>
    <contour>
      <point x="445" y="494" type="curve" smooth="yes"/>
      <point x="520" y="556" type="line" smooth="yes"/>
      <point x="547" y="579"/>
      <point x="561" y="594"/>
      <point x="561" y="623" type="curve" smooth="yes"/>
      <point x="561" y="627"/>
      <point x="561" y="636"/>
      <point x="561" y="643" type="curve" smooth="yes"/>
      <point x="561" y="650"/>
      <point x="559" y="653"/>
      <point x="554" y="658" type="curve" smooth="yes"/>
      <point x="535" y="677"/>
      <point x="500" y="685"/>
      <point x="464" y="685" type="curve" smooth="yes"/>
      <point x="451" y="685" type="line"/>
      <point x="451" y="676"/>
      <point x="451" y="664"/>
      <point x="451" y="655" type="curve" smooth="yes"/>
      <point x="451" y="635"/>
      <point x="447" y="623"/>
      <point x="441" y="606" type="curve" smooth="yes"/>
      <point x="406" y="501" type="line"/>
      <point x="416" y="491"/>
      <point x="435" y="486"/>
    </contour>
  </outline>
</glyph>
<glyph name="h" format="1">
  <advance width="600"/>
  <unicode hex="0068"/>
  <outline>
    <contour>
      <point x="199" y="-10" type="line"/>
      <point x="199" y="196"/>
      <point x="199" y="548"/>
      <point x="199" y="724" type="curve" smooth="yes"/>
      <point x="199" y="731"/>
      <point x="197" y="734"/>
      <point x="192" y="739" type="curve" smooth="yes"/>
      <point x="181" y="750"/>
      <point x="137" y="760"/>
      <point x="102" y="760" type="curve" smooth="yes"/>
      <point x="83" y="760" type="line"/>
      <point x="83" y="611"/>
      <point x="83" y="343"/>
      <point x="83" y="194" type="curve" smooth="yes"/>
      <point x="83" y="141"/>
      <point x="83" y="86"/>
      <point x="83" y="32" type="curve" smooth="yes"/>
      <point x="83" y="25"/>
      <point x="85" y="22"/>
      <point x="90" y="17" type="curve" smooth="yes"/>
      <point x="109" y="-2"/>
      <point x="145" y="-10"/>
      <point x="180" y="-10" type="curve" smooth="yes"/>
    </contour>
    <contour>
      <point x="383" y="544" type="curve" smooth="yes"/>
      <point x="320" y="544"/>
      <point x="235" y="478"/>
      <point x="187" y="418" type="curve" smooth="yes"/>
      <point x="163" y="389"/>
      <point x="157" y="371"/>
      <point x="158" y="322" type="curve"/>
      <point x="254" y="421"/>
      <point x="304" y="434"/>
      <point x="374" y="434" type="curve" smooth="yes"/>
      <point x="420" y="434"/>
      <point x="450" y="416"/>
      <point x="473" y="376" type="curve"/>
      <point x="505" y="375"/>
      <point x="517" y="395"/>
      <point x="517" y="416" type="curve" smooth="yes"/>
      <point x="517" y="467"/>
      <point x="449" y="544"/>
    </contour>
    <contour>
      <point x="517" y="-10" type="line"/>
      <point x="517" y="142"/>
      <point x="517" y="263"/>
      <point x="517" y="416" type="curve" smooth="yes"/>
      <point x="517" y="422"/>
      <point x="515" y="426"/>
      <point x="510" y="431" type="curve" smooth="yes"/>
      <point x="491" y="449"/>
      <point x="455" y="458"/>
      <point x="420" y="458" type="curve" smooth="yes"/>
      <point x="401" y="458" type="line"/>
      <point x="401" y="360"/>
      <point x="401" y="292"/>
      <point x="401" y="194" type="curve" smooth="yes"/>
      <point x="401" y="141"/>
      <point x="401" y="86"/>
      <point x="401" y="32" type="curve" smooth="yes"/>
      <point x="401" y="25"/>
      <point x="403" y="22"/>
      <point x="408" y="17" type="curve" smooth="yes"/>
      <point x="427" y="-2"/>
      <point x="463" y="-10"/>
      <point x="498" y="-10" type="curve" smooth="yes"/>
    </contour>
  </outline>
</glyph>
<glyph name="i" format="1">
  <advance width="300"/>
  <unicode hex="0069"/>
  <outline>
    <contour>
      <point x="220" y="617" type="line"/>
      <point x="220" y="644"/>
      <point x="220" y="683"/>
      <point x="220" y="710" type="curve" smooth="yes"/>
      <point x="220" y="718"/>
      <point x="218" y="721"/>
      <point x="212" y="727" type="curve" smooth="yes"/>
      <point x="194" y="745"/>
      <point x="172" y="751"/>
      <point x="140" y="751" type="curve"/>
      <point x="80" y="751" type="line"/>
      <point x="80" y="724"/>
      <point x="80" y="686"/>
      <point x="80" y="658" type="curve" smooth="yes"/>
      <point x="80" y="650"/>
      <point x="82" y="647"/>
      <point x="88" y="641" type="curve" smooth="yes"/>
      <point x="105" y="624"/>
      <point x="128" y="617"/>
      <point x="160" y="617" type="curve"/>
    </contour>
    <contour>
      <point x="208" y="-10" type="line"/>
      <point x="208" y="158"/>
      <point x="208" y="330"/>
      <point x="208" y="498" type="curve" smooth="yes"/>
      <point x="208" y="505"/>
      <point x="206" y="508"/>
      <point x="201" y="513" type="curve" smooth="yes"/>
      <point x="190" y="524"/>
      <point x="146" y="534"/>
      <point x="111" y="534" type="curve" smooth="yes"/>
      <point x="92" y="534" type="line"/>
      <point x="92" y="421"/>
      <point x="92" y="301"/>
      <point x="92" y="188" type="curve" smooth="yes"/>
      <point x="92" y="136"/>
      <point x="92" y="84"/>
      <point x="92" y="32" type="curve" smooth="yes"/>
      <point x="92" y="25"/>
      <point x="94" y="22"/>
      <point x="99" y="17" type="curve" smooth="yes"/>
      <point x="118" y="-2"/>
      <point x="154" y="-10"/>
      <point x="189" y="-10" type="curve" smooth="yes"/>
    </contour>
  </outline>
</glyph>
<glyph name="j" format="1">
  <advance width="300"/>
  <unicode hex="006A"/>
  <outline>
    <contour>
      <point x="220" y="617" type="line"/>
      <point x="220" y="644"/>
      <point x="220" y="683"/>
      <point x="220" y="710" type="curve" smooth="yes"/>
      <point x="220" y="718"/>
      <point x="218" y="721"/>
      <point x="212" y="727" type="curve" smooth="yes"/>
      <point x="194" y="745"/>
      <point x="172" y="751"/>
      <point x="140" y="751" type="curve"/>
      <point x="80" y="751" type="line"/>
      <point x="80" y="724"/>
      <point x="80" y="686"/>
      <point x="80" y="658" type="curve" smooth="yes"/>
      <point x="80" y="650"/>
      <point x="82" y="647"/>
      <point x="88" y="641" type="curve" smooth="yes"/>
      <point x="105" y="624"/>
      <point x="128" y="617"/>
      <point x="160" y="617" type="curve"/>
    </contour>
    <contour>
      <point x="55" y="-250" type="line"/>
      <point x="125" y="-250"/>
      <point x="208" y="-196"/>
      <point x="208" y="-12" type="curve" smooth="yes"/>
      <point x="208" y="156"/>
      <point x="208" y="330"/>
      <point x="208" y="498" type="curve" smooth="yes"/>
      <point x="208" y="505"/>
      <point x="206" y="508"/>
      <point x="201" y="513" type="curve" smooth="yes"/>
      <point x="190" y="524"/>
      <point x="146" y="534"/>
      <point x="111" y="534" type="curve" smooth="yes"/>
      <point x="92" y="534" type="line"/>
      <point x="92" y="429"/>
      <point x="92" y="298"/>
      <point x="92" y="214" type="curve"/>
      <point x="92" y="138"/>
      <point x="92" y="63"/>
      <point x="92" y="-12" type="curve" smooth="yes"/>
      <point x="92" y="-105"/>
      <point x="69" y="-140"/>
      <point x="4" y="-140" type="curve"/>
      <point x="-6" y="-140" type="line"/>
      <point x="-6" y="-149" type="line" smooth="yes"/>
      <point x="-6" y="-210"/>
      <point x="15" y="-250"/>
      <point x="42" y="-250" type="curve" smooth="yes"/>
    </contour>
  </outline>
</glyph>
<glyph name="k" format="1">
  <advance width="600"/>
  <unicode hex="006B"/>
  <outline>
    <contour>
      <point x="193" y="-10" type="line"/>
      <point x="193" y="161"/>
      <point x="193" y="579"/>
      <point x="193" y="720" type="curve" smooth="yes"/>
      <point x="193" y="727"/>
      <point x="191" y="730"/>
      <point x="186" y="735" type="curve" smooth="yes"/>
      <point x="175" y="746"/>
      <point x="137" y="756"/>
      <point x="102" y="756" type="curve" smooth="yes"/>
      <point x="83" y="756" type="line"/>
      <point x="83" y="641"/>
      <point x="83" y="309"/>
      <point x="83" y="194" type="curve" smooth="yes"/>
      <point x="83" y="141"/>
      <point x="83" y="86"/>
      <point x="83" y="32" type="curve" smooth="yes"/>
      <point x="83" y="25"/>
      <point x="85" y="22"/>
      <point x="90" y="17" type="curve" smooth="yes"/>
      <point x="109" y="-2"/>
      <point x="139" y="-10"/>
      <point x="174" y="-10" type="curve" smooth="yes"/>
    </contour>
    <contour>
      <point x="298" y="298" type="line"/>
      <point x="245" y="253"/>
      <point x="238" y="214"/>
      <point x="252" y="198" type="curve" smooth="yes"/>
      <point x="369" y="60" type="line" smooth="yes"/>
      <point x="422" y="-3"/>
      <point x="451" y="-20"/>
      <point x="502" y="-20" type="curve" smooth="yes"/>
      <point x="523" y="-20"/>
      <point x="546" y="-6"/>
      <point x="546" y="14" type="curve" smooth="yes"/>
      <point x="546" y="110" type="line"/>
      <point x="527" y="110" type="line"/>
      <point x="519" y="106"/>
      <point x="506" y="102"/>
      <point x="496" y="102" type="curve" smooth="yes"/>
      <point x="467" y="102"/>
      <point x="451" y="111"/>
      <point x="430" y="137" type="curve" smooth="yes"/>
    </contour>
    <contour>
      <point x="443" y="540" type="curve" smooth="yes"/>
      <point x="425" y="540" type="line"/>
      <point x="360" y="365"/>
      <point x="259" y="270"/>
      <point x="125" y="221" type="curve"/>
      <point x="125" y="181"/>
      <point x="146" y="160"/>
      <point x="166" y="164" type="curve" smooth="yes"/>
      <point x="303" y="191"/>
      <point x="434" y="285"/>
      <point x="522" y="464" type="curve" smooth="yes"/>
      <point x="530" y="481"/>
      <point x="531" y="487"/>
      <point x="531" y="493" type="curve" smooth="yes"/>
      <point x="531" y="516"/>
      <point x="489" y="540"/>
    </contour>
  </outline>
</glyph>
<glyph name="l" format="1">
  <advance width="300"/>
  <unicode hex="006C"/>
  <outline>
    <contour>
      <point x="26" y="750" type="curve"/>
      <point x="26" y="731" type="line" smooth="yes"/>
      <point x="26" y="684"/>
      <point x="31" y="660"/>
      <point x="44" y="647" type="curve" smooth="yes"/>
      <point x="49" y="642"/>
      <point x="52" y="640"/>
      <point x="59" y="640" type="curve"/>
      <point x="97" y="640"/>
      <point x="124" y="640"/>
      <point x="161" y="640" type="curve"/>
      <point x="161" y="659" type="line" smooth="yes"/>
      <point x="161" y="680"/>
      <point x="146" y="720"/>
      <point x="122" y="743" type="curve" smooth="yes"/>
      <point x="117" y="748"/>
      <point x="114" y="750"/>
      <point x="107" y="750" type="curve" smooth="yes"/>
      <point x="89" y="750"/>
      <point x="44" y="750"/>
    </contour>
    <contour>
      <point x="208" y="-10" type="line"/>
      <point x="208" y="161"/>
      <point x="208" y="573"/>
      <point x="208" y="714" type="curve" smooth="yes"/>
      <point x="208" y="721"/>
      <point x="206" y="724"/>
      <point x="201" y="729" type="curve" smooth="yes"/>
      <point x="190" y="740"/>
      <point x="146" y="750"/>
      <point x="111" y="750" type="curve" smooth="yes"/>
      <point x="92" y="750" type="line"/>
      <point x="92" y="635"/>
      <point x="92" y="309"/>
      <point x="92" y="194" type="curve" smooth="yes"/>
      <point x="92" y="141"/>
      <point x="92" y="86"/>
      <point x="92" y="32" type="curve" smooth="yes"/>
      <point x="92" y="25"/>
      <point x="94" y="22"/>
      <point x="99" y="17" type="curve" smooth="yes"/>
      <point x="118" y="-2"/>
      <point x="154" y="-10"/>
      <point x="189" y="-10" type="curve" smooth="yes"/>
    </contour>
  </outline>
</glyph>
<glyph name="m" format="1">
  <advance width="900"/>
  <unicode hex="006D"/>
  <outline>
    <contour>
      <point x="188" y="-10" type="line"/>
      <point x="188" y="161"/>
      <point x="188" y="331"/>
      <point x="188" y="501" type="curve" smooth="yes"/>
      <point x="188" y="508"/>
      <point x="186" y="511"/>
      <point x="181" y="516" type="curve" smooth="yes"/>
      <point x="170" y="527"/>
      <point x="132" y="535"/>
      <point x="100" y="535" type="curve" smooth="yes"/>
      <point x="83" y="535" type="line"/>
      <point x="83" y="422"/>
      <point x="83" y="306"/>
      <point x="83" y="193" type="curve" smooth="yes"/>
      <point x="83" y="139"/>
      <point x="83" y="83"/>
      <point x="83" y="29" type="curve" smooth="yes"/>
      <point x="83" y="23"/>
      <point x="85" y="19"/>
      <point x="89" y="15" type="curve" smooth="yes"/>
      <point x="106" y="-3"/>
      <point x="138" y="-10"/>
      <point x="170" y="-10" type="curve" smooth="yes"/>
    </contour>
    <contour>
      <point x="376" y="540" type="curve" smooth="yes"/>
      <point x="305" y="540"/>
      <point x="228" y="478"/>
      <point x="178" y="415" type="curve" smooth="yes"/>
      <point x="155" y="387"/>
      <point x="149" y="369"/>
      <point x="150" y="324" type="curve"/>
      <point x="243" y="411"/>
      <point x="293" y="435"/>
      <point x="370" y="435" type="curve" smooth="yes"/>
      <point x="410" y="435"/>
      <point x="442" y="417"/>
      <point x="460" y="367" type="curve"/>
      <point x="493" y="380"/>
      <point x="505" y="399"/>
      <point x="505" y="415" type="curve" smooth="yes"/>
      <point x="505" y="465"/>
      <point x="438" y="540"/>
    </contour>
    <contour>
      <point x="505" y="-10" type="line"/>
      <point x="505" y="144"/>
      <point x="505" y="261"/>
      <point x="505" y="415" type="curve" smooth="yes"/>
      <point x="505" y="421"/>
      <point x="503" y="425"/>
      <point x="499" y="429" type="curve" smooth="yes"/>
      <point x="482" y="446"/>
      <point x="450" y="454"/>
      <point x="418" y="454" type="curve" smooth="yes"/>
      <point x="400" y="454" type="line"/>
      <point x="400" y="356"/>
      <point x="400" y="291"/>
      <point x="400" y="193" type="curve" smooth="yes"/>
      <point x="400" y="139"/>
      <point x="400" y="83"/>
      <point x="400" y="29" type="curve" smooth="yes"/>
      <point x="400" y="23"/>
      <point x="402" y="19"/>
      <point x="407" y="15" type="curve" smooth="yes"/>
      <point x="424" y="-3"/>
      <point x="456" y="-10"/>
      <point x="488" y="-10" type="curve" smooth="yes"/>
    </contour>
    <contour>
      <point x="688" y="540" type="curve" smooth="yes"/>
      <point x="618" y="540"/>
      <point x="540" y="478"/>
      <point x="490" y="415" type="curve" smooth="yes"/>
      <point x="467" y="387"/>
      <point x="462" y="369"/>
      <point x="463" y="324" type="curve"/>
      <point x="556" y="411"/>
      <point x="605" y="435"/>
      <point x="683" y="435" type="curve" smooth="yes"/>
      <point x="722" y="435"/>
      <point x="755" y="417"/>
      <point x="772" y="367" type="curve"/>
      <point x="806" y="380"/>
      <point x="818" y="399"/>
      <point x="818" y="415" type="curve" smooth="yes"/>
      <point x="818" y="465"/>
      <point x="751" y="540"/>
    </contour>
    <contour>
      <point x="818" y="-10" type="line"/>
      <point x="818" y="144"/>
      <point x="818" y="261"/>
      <point x="818" y="415" type="curve" smooth="yes"/>
      <point x="818" y="421"/>
      <point x="816" y="425"/>
      <point x="811" y="429" type="curve" smooth="yes"/>
      <point x="794" y="446"/>
      <point x="762" y="454"/>
      <point x="730" y="454" type="curve" smooth="yes"/>
      <point x="713" y="454" type="line"/>
      <point x="713" y="356"/>
      <point x="713" y="291"/>
      <point x="713" y="193" type="curve" smooth="yes"/>
      <point x="713" y="139"/>
      <point x="713" y="83"/>
      <point x="713" y="29" type="curve" smooth="yes"/>
      <point x="713" y="23"/>
      <point x="715" y="19"/>
      <point x="719" y="15" type="curve" smooth="yes"/>
      <point x="736" y="-3"/>
      <point x="768" y="-10"/>
      <point x="800" y="-10" type="curve" smooth="yes"/>
    </contour>
  </outline>
</glyph>
<glyph name="n" format="1">
  <advance width="600"/>
  <unicode hex="006E"/>
  <outline>
    <contour>
      <point x="188" y="-10" type="line"/>
      <point x="188" y="160"/>
      <point x="188" y="331"/>
      <point x="188" y="501" type="curve" smooth="yes"/>
      <point x="188" y="508"/>
      <point x="186" y="511"/>
      <point x="181" y="516" type="curve" smooth="yes"/>
      <point x="170" y="527"/>
      <point x="132" y="535"/>
      <point x="100" y="535" type="curve" smooth="yes"/>
      <point x="83" y="535" type="line"/>
      <point x="83" y="421"/>
      <point x="83" y="306"/>
      <point x="83" y="193" type="curve" smooth="yes"/>
      <point x="83" y="138"/>
      <point x="83" y="83"/>
      <point x="83" y="29" type="curve" smooth="yes"/>
      <point x="83" y="23"/>
      <point x="85" y="19"/>
      <point x="89" y="15" type="curve" smooth="yes"/>
      <point x="106" y="-3"/>
      <point x="138" y="-10"/>
      <point x="170" y="-10" type="curve" smooth="yes"/>
    </contour>
    <contour>
      <point x="386" y="540" type="curve" smooth="yes"/>
      <point x="315" y="540"/>
      <point x="228" y="478"/>
      <point x="178" y="415" type="curve" smooth="yes"/>
      <point x="155" y="387"/>
      <point x="149" y="369"/>
      <point x="150" y="324" type="curve"/>
      <point x="243" y="411"/>
      <point x="303" y="435"/>
      <point x="380" y="435" type="curve" smooth="yes"/>
      <point x="420" y="435"/>
      <point x="455" y="417"/>
      <point x="482" y="377" type="curve"/>
      <point x="506" y="380"/>
      <point x="518" y="399"/>
      <point x="518" y="415" type="curve" smooth="yes"/>
      <point x="518" y="465"/>
      <point x="448" y="540"/>
    </contour>
    <contour>
      <point x="518" y="-10" type="line"/>
      <point x="518" y="143"/>
      <point x="518" y="261"/>
      <point x="518" y="415" type="curve" smooth="yes"/>
      <point x="518" y="421"/>
      <point x="516" y="425"/>
      <point x="511" y="429" type="curve" smooth="yes"/>
      <point x="494" y="446"/>
      <point x="462" y="454"/>
      <point x="430" y="454" type="curve" smooth="yes"/>
      <point x="413" y="454" type="line"/>
      <point x="413" y="356"/>
      <point x="413" y="291"/>
      <point x="413" y="193" type="curve" smooth="yes"/>
      <point x="413" y="138"/>
      <point x="413" y="83"/>
      <point x="413" y="29" type="curve" smooth="yes"/>
      <point x="413" y="23"/>
      <point x="415" y="19"/>
      <point x="419" y="15" type="curve" smooth="yes"/>
      <point x="436" y="-3"/>
      <point x="468" y="-10"/>
      <point x="500" y="-10" type="curve" smooth="yes"/>
    </contour>
  </outline>
</glyph>
<glyph name="o" format="1">
  <advance width="600"/>
  <unicode hex="006F"/>
  <outline>
    <contour>
      <point x="295" y="545" type="curve" smooth="yes"/>
      <point x="159" y="545"/>
      <point x="58" y="436"/>
      <point x="58" y="283" type="curve" smooth="yes"/>
      <point x="58" y="238" type="line" smooth="yes"/>
      <point x="58" y="86"/>
      <point x="160" y="-20"/>
      <point x="287" y="-20" type="curve" smooth="yes"/>
      <point x="305" y="-20" type="line" smooth="yes"/>
      <point x="332" y="-20"/>
      <point x="347" y="8"/>
      <point x="347" y="42" type="curve"/>
      <point x="200" y="53"/>
      <point x="158" y="138"/>
      <point x="158" y="224" type="curve" smooth="yes"/>
      <point x="158" y="268" type="line" smooth="yes"/>
      <point x="158" y="359"/>
      <point x="212" y="446"/>
      <point x="317" y="446" type="curve" smooth="yes"/>
      <point x="367" y="446"/>
      <point x="394" y="438"/>
      <point x="427" y="422" type="curve"/>
      <point x="438" y="430"/>
      <point x="440" y="435"/>
      <point x="440" y="452" type="curve"/>
      <point x="440" y="497"/>
      <point x="369" y="545"/>
    </contour>
    <contour>
      <point x="305" y="-20" type="curve" smooth="yes"/>
      <point x="441" y="-20"/>
      <point x="543" y="89"/>
      <point x="543" y="243" type="curve" smooth="yes"/>
      <point x="543" y="288" type="line" smooth="yes"/>
      <point x="543" y="439"/>
      <point x="441" y="545"/>
      <point x="314" y="545" type="curve" smooth="yes"/>
      <point x="295" y="545" type="line" smooth="yes"/>
      <point x="268" y="545"/>
      <point x="254" y="517"/>
      <point x="254" y="483" type="curve"/>
      <point x="400" y="473"/>
      <point x="443" y="387"/>
      <point x="443" y="302" type="curve" smooth="yes"/>
      <point x="443" y="258" type="line" smooth="yes"/>
      <point x="443" y="166"/>
      <point x="389" y="80"/>
      <point x="284" y="80" type="curve" smooth="yes"/>
      <point x="233" y="80"/>
      <point x="206" y="87"/>
      <point x="173" y="103" type="curve"/>
      <point x="163" y="96"/>
      <point x="160" y="91"/>
      <point x="160" y="74" type="curve"/>
      <point x="160" y="28"/>
      <point x="231" y="-20"/>
    </contour>
  </outline>
</glyph>
<glyph name="p" format="1">
  <advance width="600"/>
  <unicode hex="0070"/>
  <outline>
    <contour>
      <point x="199" y="-235" type="line"/>
      <point x="199" y="-14"/>
      <point x="199" y="279"/>
      <point x="199" y="500" type="curve" smooth="yes"/>
      <point x="199" y="507"/>
      <point x="197" y="510"/>
      <point x="192" y="515" type="curve" smooth="yes"/>
      <point x="181" y="526"/>
      <point x="137" y="536"/>
      <point x="102" y="536" type="curve" smooth="yes"/>
      <point x="83" y="536" type="line"/>
      <point x="83" y="423"/>
      <point x="83" y="307"/>
      <point x="83" y="194" type="curve" smooth="yes"/>
      <point x="83" y="91"/>
      <point x="83" y="-90"/>
      <point x="83" y="-193" type="curve" smooth="yes"/>
      <point x="83" y="-200"/>
      <point x="85" y="-203"/>
      <point x="90" y="-208" type="curve" smooth="yes"/>
      <point x="109" y="-227"/>
      <point x="145" y="-235"/>
      <point x="180" y="-235" type="curve" smooth="yes"/>
    </contour>
    <contour>
      <point x="389" y="544" type="curve" smooth="yes"/>
      <point x="321" y="544"/>
      <point x="240" y="485"/>
      <point x="187" y="418" type="curve" smooth="yes"/>
      <point x="163" y="389"/>
      <point x="157" y="371"/>
      <point x="158" y="322" type="curve"/>
      <point x="250" y="404"/>
      <point x="308" y="428"/>
      <point x="383" y="428" type="curve" smooth="yes"/>
      <point x="437" y="428"/>
      <point x="471" y="386"/>
      <point x="497" y="322" type="curve"/>
      <point x="530" y="323"/>
      <point x="546" y="344"/>
      <point x="546" y="360" type="curve" smooth="yes"/>
      <point x="546" y="457"/>
      <point x="464" y="544"/>
    </contour>
    <contour>
      <point x="330" y="-20" type="curve" smooth="yes"/>
      <point x="471" y="-20"/>
      <point x="546" y="126"/>
      <point x="546" y="322" type="curve" smooth="yes"/>
      <point x="546" y="360" type="line" smooth="yes"/>
      <point x="546" y="406"/>
      <point x="507" y="474"/>
      <point x="458" y="474" type="curve"/>
      <point x="425" y="474"/>
      <point x="401" y="466"/>
      <point x="400" y="443" type="curve"/>
      <point x="417" y="417"/>
      <point x="427" y="393"/>
      <point x="427" y="344" type="curve" smooth="yes"/>
      <point x="427" y="322" type="line" smooth="yes"/>
      <point x="427" y="180"/>
      <point x="371" y="87"/>
      <point x="285" y="87" type="curve" smooth="yes"/>
      <point x="246" y="87"/>
      <point x="218" y="92"/>
      <point x="186" y="102" type="curve"/>
      <point x="181" y="100"/>
      <point x="179" y="96"/>
      <point x="179" y="89" type="curve"/>
      <point x="179" y="51"/>
      <point x="255" y="-20"/>
    </contour>
  </outline>
</glyph>
<glyph name="q" format="1">
  <advance width="600"/>
  <unicode hex="0071"/>
  <outline>
    <contour>
      <point x="518" y="-238" type="line"/>
      <point x="518" y="-24"/>
      <point x="518" y="287"/>
      <point x="518" y="501" type="curve" smooth="yes"/>
      <point x="518" y="508"/>
      <point x="516" y="511"/>
      <point x="511" y="516" type="curve" smooth="yes"/>
      <point x="500" y="527"/>
      <point x="462" y="535"/>
      <point x="430" y="535" type="curve" smooth="yes"/>
      <point x="413" y="535" type="line"/>
      <point x="413" y="413"/>
      <point x="413" y="290"/>
      <point x="413" y="168" type="curve" smooth="yes"/>
      <point x="413" y="69"/>
      <point x="413" y="-100"/>
      <point x="413" y="-199" type="curve" smooth="yes"/>
      <point x="413" y="-205"/>
      <point x="415" y="-209"/>
      <point x="419" y="-213" type="curve" smooth="yes"/>
      <point x="436" y="-230"/>
      <point x="468" y="-238"/>
      <point x="500" y="-238" type="curve" smooth="yes"/>
    </contour>
    <contour>
      <point x="275" y="545" type="curve" smooth="yes"/>
      <point x="152" y="545"/>
      <point x="58" y="430"/>
      <point x="58" y="223" type="curve" smooth="yes"/>
      <point x="58" y="185" type="line" smooth="yes"/>
      <point x="58" y="139"/>
      <point x="95" y="70"/>
      <point x="148" y="70" type="curve"/>
      <point x="168" y="70"/>
      <point x="182" y="76"/>
      <point x="183" y="93" type="curve"/>
      <point x="171" y="117"/>
      <point x="165" y="151"/>
      <point x="165" y="210" type="curve" smooth="yes"/>
      <point x="165" y="228" type="line" smooth="yes"/>
      <point x="165" y="362"/>
      <point x="210" y="448"/>
      <point x="296" y="448" type="curve" smooth="yes"/>
      <point x="353" y="448"/>
      <point x="381" y="434"/>
      <point x="428" y="394" type="curve"/>
      <point x="437" y="396"/>
      <point x="438" y="414"/>
      <point x="432" y="426" type="curve"/>
      <point x="416" y="474"/>
      <point x="350" y="545"/>
    </contour>
    <contour>
      <point x="215" y="-15" type="curve" smooth="yes"/>
      <point x="284" y="-15"/>
      <point x="374" y="44"/>
      <point x="423" y="105" type="curve" smooth="yes"/>
      <point x="446" y="133"/>
      <point x="451" y="152"/>
      <point x="450" y="197" type="curve"/>
      <point x="359" y="112"/>
      <point x="297" y="90"/>
      <point x="220" y="90" type="curve" smooth="yes"/>
      <point x="156" y="90"/>
      <point x="130" y="153"/>
      <point x="100" y="232" type="curve"/>
      <point x="69" y="230"/>
      <point x="58" y="206"/>
      <point x="58" y="185" type="curve" smooth="yes"/>
      <point x="58" y="82"/>
      <point x="123" y="-15"/>
    </contour>
  </outline>
</glyph>
<glyph name="r" format="1">
  <advance width="600"/>
  <unicode hex="0072"/>
  <outline>
    <contour>
      <point x="400" y="550" type="curve" smooth="yes"/>
      <point x="349" y="550"/>
      <point x="283" y="481"/>
      <point x="238" y="419" type="curve" smooth="yes"/>
      <point x="215" y="388"/>
      <point x="208" y="372"/>
      <point x="209" y="322" type="curve"/>
      <point x="288" y="398"/>
      <point x="335" y="428"/>
      <point x="390" y="428" type="curve" smooth="yes"/>
      <point x="433" y="428"/>
      <point x="465" y="410"/>
      <point x="489" y="369" type="curve"/>
      <point x="517" y="375"/>
      <point x="530" y="397"/>
      <point x="530" y="414" type="curve" smooth="yes"/>
      <point x="530" y="470"/>
      <point x="462" y="550"/>
    </contour>
    <contour>
      <point x="530" y="251" type="line"/>
      <point x="530" y="308"/>
      <point x="530" y="356"/>
      <point x="530" y="414" type="curve" smooth="yes"/>
      <point x="530" y="421"/>
      <point x="528" y="424"/>
      <point x="523" y="429" type="curve" smooth="yes"/>
      <point x="504" y="448"/>
      <point x="468" y="456"/>
      <point x="433" y="456" type="curve" smooth="yes"/>
      <point x="414" y="456" type="line"/>
      <point x="414" y="399"/>
      <point x="414" y="350"/>
      <point x="414" y="293" type="curve" smooth="yes"/>
      <point x="414" y="286"/>
      <point x="416" y="283"/>
      <point x="421" y="278" type="curve" smooth="yes"/>
      <point x="440" y="259"/>
      <point x="476" y="251"/>
      <point x="511" y="251" type="curve" smooth="yes"/>
    </contour>
    <contour>
      <point x="45" y="530" type="curve"/>
      <point x="45" y="511" type="line" smooth="yes"/>
      <point x="45" y="464"/>
      <point x="50" y="440"/>
      <point x="63" y="427" type="curve" smooth="yes"/>
      <point x="68" y="422"/>
      <point x="71" y="420"/>
      <point x="78" y="420" type="curve"/>
      <point x="123" y="420"/>
      <point x="148" y="420"/>
      <point x="192" y="420" type="curve"/>
      <point x="192" y="439" type="line" smooth="yes"/>
      <point x="192" y="460"/>
      <point x="177" y="500"/>
      <point x="153" y="523" type="curve" smooth="yes"/>
      <point x="148" y="528"/>
      <point x="145" y="530"/>
      <point x="138" y="530" type="curve" smooth="yes"/>
      <point x="118" y="530"/>
      <point x="66" y="530"/>
    </contour>
    <contour>
      <point x="250" y="-10" type="line"/>
      <point x="250" y="121"/>
      <point x="250" y="252"/>
      <point x="250" y="384" type="curve"/>
      <point x="250" y="447"/>
      <point x="206" y="530"/>
      <point x="159" y="530" type="curve" smooth="yes"/>
      <point x="134" y="530" type="line"/>
      <point x="134" y="448"/>
      <point x="134" y="299"/>
      <point x="134" y="223" type="curve" smooth="yes"/>
      <point x="134" y="159"/>
      <point x="134" y="95"/>
      <point x="134" y="32" type="curve"/>
      <point x="134" y="25"/>
      <point x="136" y="22"/>
      <point x="141" y="17" type="curve" smooth="yes"/>
      <point x="160" y="-2"/>
      <point x="196" y="-10"/>
      <point x="231" y="-10" type="curve" smooth="yes"/>
    </contour>
  </outline>
</glyph>
<glyph name="s" format="1">
  <advance width="600"/>
  <unicode hex="0073"/>
  <outline>
    <contour>
      <point x="371" y="550" type="curve" smooth="yes"/>
      <point x="225" y="550"/>
      <point x="89" y="469"/>
      <point x="89" y="375" type="curve" smooth="yes"/>
      <point x="89" y="352" type="line" smooth="yes"/>
      <point x="89" y="317"/>
      <point x="146" y="303"/>
      <point x="202" y="303" type="curve"/>
      <point x="199" y="320"/>
      <point x="199" y="346"/>
      <point x="199" y="363" type="curve" smooth="yes"/>
      <point x="199" y="406"/>
      <point x="278" y="440"/>
      <point x="366" y="440" type="curve" smooth="yes"/>
      <point x="422" y="440"/>
      <point x="460" y="429"/>
      <point x="488" y="414" type="curve"/>
      <point x="507" y="414" type="line"/>
      <point x="507" y="503" type="line" smooth="yes"/>
      <point x="507" y="529"/>
      <point x="453" y="550"/>
    </contour>
    <contour>
      <point x="386" y="295" type="curve" smooth="yes"/>
      <point x="292" y="314" type="line" smooth="yes"/>
      <point x="213" y="329"/>
      <point x="199" y="342"/>
      <point x="199" y="363" type="curve" smooth="yes"/>
      <point x="199" y="378"/>
      <point x="201" y="402"/>
      <point x="218" y="422" type="curve"/>
      <point x="138" y="417"/>
      <point x="89" y="391"/>
      <point x="89" y="352" type="curve"/>
      <point x="89" y="296"/>
      <point x="133" y="255"/>
      <point x="241" y="232" type="curve" smooth="yes"/>
      <point x="348" y="208" type="line" smooth="yes"/>
      <point x="432" y="190"/>
      <point x="455" y="159"/>
      <point x="471" y="103" type="curve"/>
      <point x="508" y="102"/>
      <point x="532" y="132"/>
      <point x="532" y="160" type="curve"/>
      <point x="532" y="230"/>
      <point x="488" y="274"/>
    </contour>
    <contour>
      <point x="308" y="-20" type="line" smooth="yes"/>
      <point x="449" y="-20"/>
      <point x="532" y="34"/>
      <point x="532" y="120" type="curve" smooth="yes"/>
      <point x="532" y="160" type="line"/>
      <point x="532" y="181"/>
      <point x="503" y="185"/>
      <point x="467" y="170" type="curve"/>
      <point x="457" y="116"/>
      <point x="410" y="90"/>
      <point x="300" y="90" type="curve" smooth="yes"/>
      <point x="191" y="90"/>
      <point x="142" y="99"/>
      <point x="84" y="141" type="curve"/>
      <point x="65" y="141" type="line"/>
      <point x="65" y="112"/>
      <point x="65" y="82"/>
      <point x="65" y="52" type="curve"/>
      <point x="65" y="13"/>
      <point x="142" y="-20"/>
      <point x="279" y="-20" type="curve" smooth="yes"/>
    </contour>
  </outline>
</glyph>
<glyph name="t" format="1">
  <advance width="600"/>
  <unicode hex="0074"/>
  <outline>
    <contour>
      <point x="539" y="160" type="line"/>
      <point x="523" y="160" type="line"/>
      <point x="481" y="111"/>
      <point x="428" y="90"/>
      <point x="356" y="90" type="curve" smooth="yes"/>
      <point x="305" y="90"/>
      <point x="264" y="94"/>
      <point x="226" y="112" type="curve"/>
      <point x="204" y="97"/>
      <point x="211" y="58"/>
      <point x="238" y="31" type="curve" smooth="yes"/>
      <point x="277" y="-8"/>
      <point x="298" y="-20"/>
      <point x="335" y="-20" type="curve" smooth="yes"/>
      <point x="345" y="-20"/>
      <point x="359" y="-20"/>
      <point x="369" y="-20" type="curve" smooth="yes"/>
      <point x="429" y="-20"/>
      <point x="485" y="1"/>
      <point x="516" y="32" type="curve" smooth="yes"/>
      <point x="531" y="46"/>
      <point x="539" y="65"/>
      <point x="539" y="92" type="curve"/>
    </contour>
    <contour>
      <point x="45" y="530" type="curve"/>
      <point x="45" y="487" type="line" smooth="yes"/>
      <point x="45" y="464"/>
      <point x="52" y="441"/>
      <point x="66" y="427" type="curve" smooth="yes"/>
      <point x="71" y="422"/>
      <point x="74" y="420"/>
      <point x="81" y="420" type="curve"/>
      <point x="140" y="420"/>
      <point x="207" y="420"/>
      <point x="266" y="420" type="curve"/>
      <point x="347" y="420"/>
      <point x="459" y="420"/>
      <point x="540" y="420" type="curve"/>
      <point x="540" y="439" type="line" smooth="yes"/>
      <point x="540" y="474"/>
      <point x="532" y="504"/>
      <point x="513" y="523" type="curve" smooth="yes"/>
      <point x="508" y="528"/>
      <point x="505" y="530"/>
      <point x="498" y="530" type="curve" smooth="yes"/>
      <point x="357" y="530"/>
      <point x="185" y="530"/>
    </contour>
    <contour>
      <point x="288" y="673" type="curve" smooth="yes"/>
      <point x="269" y="692"/>
      <point x="239" y="700"/>
      <point x="204" y="700" type="curve" smooth="yes"/>
      <point x="185" y="700" type="line"/>
      <point x="185" y="143" type="line" smooth="yes"/>
      <point x="185" y="96"/>
      <point x="199" y="70"/>
      <point x="238" y="31" type="curve"/>
      <point x="263" y="6"/>
      <point x="295" y="6"/>
      <point x="305" y="25" type="curve"/>
      <point x="298" y="64"/>
      <point x="295" y="107"/>
      <point x="295" y="158" type="curve" smooth="yes"/>
      <point x="295" y="658" type="line" smooth="yes"/>
      <point x="295" y="665"/>
      <point x="293" y="668"/>
    </contour>
  </outline>
</glyph>
<glyph name="u" format="1">
  <advance width="600"/>
  <unicode hex="0075"/>
  <outline>
    <contour>
      <point x="401" y="540" type="line"/>
      <point x="401" y="369"/>
      <point x="401" y="197"/>
      <point x="401" y="26" type="curve" smooth="yes"/>
      <point x="401" y="19"/>
      <point x="403" y="16"/>
      <point x="408" y="11" type="curve" smooth="yes"/>
      <point x="419" y="0"/>
      <point x="463" y="-10"/>
      <point x="498" y="-10" type="curve" smooth="yes"/>
      <point x="517" y="-10" type="line"/>
      <point x="517" y="105"/>
      <point x="517" y="221"/>
      <point x="517" y="336" type="curve" smooth="yes"/>
      <point x="517" y="389"/>
      <point x="517" y="444"/>
      <point x="517" y="498" type="curve" smooth="yes"/>
      <point x="517" y="505"/>
      <point x="515" y="508"/>
      <point x="510" y="513" type="curve" smooth="yes"/>
      <point x="491" y="532"/>
      <point x="455" y="540"/>
      <point x="420" y="540" type="curve" smooth="yes"/>
    </contour>
    <contour>
      <point x="217" y="-14" type="curve" smooth="yes"/>
      <point x="280" y="-14"/>
      <point x="365" y="52"/>
      <point x="413" y="112" type="curve" smooth="yes"/>
      <point x="437" y="141"/>
      <point x="443" y="159"/>
      <point x="442" y="208" type="curve"/>
      <point x="352" y="127"/>
      <point x="296" y="102"/>
      <point x="226" y="102" type="curve" smooth="yes"/>
      <point x="180" y="102"/>
      <point x="150" y="120"/>
      <point x="127" y="160" type="curve"/>
      <point x="95" y="161"/>
      <point x="83" y="135"/>
      <point x="83" y="114" type="curve" smooth="yes"/>
      <point x="83" y="63"/>
      <point x="151" y="-14"/>
    </contour>
    <contour>
      <point x="83" y="540" type="line"/>
      <point x="83" y="388"/>
      <point x="83" y="267"/>
      <point x="83" y="114" type="curve" smooth="yes"/>
      <point x="83" y="108"/>
      <point x="85" y="104"/>
      <point x="90" y="99" type="curve" smooth="yes"/>
      <point x="109" y="81"/>
      <point x="145" y="72"/>
      <point x="180" y="72" type="curve" smooth="yes"/>
      <point x="199" y="72" type="line"/>
      <point x="199" y="170"/>
      <point x="199" y="238"/>
      <point x="199" y="336" type="curve" smooth="yes"/>
      <point x="199" y="389"/>
      <point x="199" y="444"/>
      <point x="199" y="498" type="curve" smooth="yes"/>
      <point x="199" y="505"/>
      <point x="197" y="508"/>
      <point x="192" y="513" type="curve" smooth="yes"/>
      <point x="173" y="532"/>
      <point x="137" y="540"/>
      <point x="102" y="540" type="curve" smooth="yes"/>
    </contour>
  </outline>
</glyph>
<glyph name="v" format="1">
  <advance width="600"/>
  <unicode hex="0076"/>
  <outline>
    <contour>
      <point x="441" y="540" type="curve" smooth="yes"/>
      <point x="423" y="540" type="line"/>
      <point x="398" y="269"/>
      <point x="367" y="161"/>
      <point x="264" y="75" type="curve" smooth="yes"/>
      <point x="243" y="58"/>
      <point x="257" y="-10"/>
      <point x="304" y="-10" type="curve"/>
      <point x="340" y="-10" type="line"/>
      <point x="451" y="80"/>
      <point x="513" y="248"/>
      <point x="534" y="485" type="curve" smooth="yes"/>
      <point x="537" y="516"/>
      <point x="490" y="540"/>
    </contour>
    <contour>
      <point x="80" y="540" type="curve" smooth="yes"/>
      <point x="62" y="540" type="line"/>
      <point x="85" y="274"/>
      <point x="124" y="124"/>
      <point x="221" y="28" type="curve" smooth="yes"/>
      <point x="253" y="-4"/>
      <point x="279" y="-10"/>
      <point x="304" y="-10" type="curve"/>
      <point x="336" y="-10"/>
      <point x="355" y="4"/>
      <point x="355" y="49" type="curve"/>
      <point x="246" y="128"/>
      <point x="206" y="241"/>
      <point x="181" y="502" type="curve" smooth="yes"/>
      <point x="179" y="524"/>
      <point x="130" y="540"/>
    </contour>
  </outline>
</glyph>
<glyph name="w" format="1">
  <advance width="900"/>
  <unicode hex="0077"/>
  <outline>
    <contour>
      <point x="160" y="517" type="curve" smooth="yes"/>
      <point x="144" y="533"/>
      <point x="102" y="540"/>
      <point x="66" y="540" type="curve" smooth="yes"/>
      <point x="48" y="540" type="line"/>
      <point x="69" y="279"/>
      <point x="95" y="134"/>
      <point x="185" y="42" type="curve" smooth="yes"/>
      <point x="228" y="-1"/>
      <point x="257" y="-10"/>
      <point x="284" y="-10" type="curve"/>
      <point x="313" y="-10"/>
      <point x="331" y="4"/>
      <point x="331" y="48" type="curve"/>
      <point x="223" y="127"/>
      <point x="189" y="241"/>
      <point x="168" y="498" type="curve" smooth="yes"/>
      <point x="167" y="509"/>
      <point x="165" y="512"/>
    </contour>
    <contour>
      <point x="482" y="400" type="curve" smooth="yes"/>
      <point x="467" y="415"/>
      <point x="445" y="430"/>
      <point x="420" y="430" type="curve" smooth="yes"/>
      <point x="402" y="430" type="line"/>
      <point x="377" y="224"/>
      <point x="338" y="149"/>
      <point x="254" y="69" type="curve"/>
      <point x="238" y="52"/>
      <point x="251" y="-10"/>
      <point x="284" y="-10" type="curve"/>
      <point x="320" y="-10" type="line"/>
      <point x="405" y="69"/>
      <point x="463" y="198"/>
      <point x="487" y="381" type="curve"/>
      <point x="488" y="389"/>
      <point x="487" y="396"/>
    </contour>
    <contour>
      <point x="487" y="489" type="curve" smooth="yes"/>
      <point x="472" y="503"/>
      <point x="433" y="511"/>
      <point x="400" y="511" type="curve" smooth="yes"/>
      <point x="381" y="511" type="line"/>
      <point x="401" y="257"/>
      <point x="444" y="115"/>
      <point x="519" y="40" type="curve" smooth="yes"/>
      <point x="562" y="-3"/>
      <point x="589" y="-10"/>
      <point x="616" y="-10" type="curve"/>
      <point x="635" y="-10"/>
      <point x="647" y="4"/>
      <point x="647" y="48" type="curve"/>
      <point x="554" y="121"/>
      <point x="516" y="227"/>
      <point x="495" y="469" type="curve" smooth="yes"/>
      <point x="494" y="481"/>
      <point x="492" y="483"/>
    </contour>
    <contour>
      <point x="843" y="505" type="curve" smooth="yes"/>
      <point x="823" y="525"/>
      <point x="790" y="540"/>
      <point x="755" y="540" type="curve" smooth="yes"/>
      <point x="737" y="540" type="line"/>
      <point x="712" y="269"/>
      <point x="677" y="160"/>
      <point x="575" y="76" type="curve"/>
      <point x="556" y="57"/>
      <point x="573" y="-10"/>
      <point x="616" y="-10" type="curve"/>
      <point x="652" y="-10" type="line"/>
      <point x="764" y="81"/>
      <point x="827" y="248"/>
      <point x="848" y="484" type="curve" smooth="yes"/>
      <point x="849" y="494"/>
      <point x="848" y="500"/>
    </contour>
  </outline>
</glyph>
<glyph name="x" format="1">
  <advance width="600"/>
  <unicode hex="0078"/>
  <outline>
    <contour>
      <point x="507" y="-10" type="curve" smooth="yes"/>
      <point x="541" y="-10"/>
      <point x="554" y="5"/>
      <point x="554" y="43" type="curve"/>
      <point x="554" y="106" type="line"/>
      <point x="483" y="123"/>
      <point x="434" y="156"/>
      <point x="357" y="233" type="curve" smooth="yes"/>
      <point x="294" y="296"/>
      <point x="246" y="372"/>
      <point x="186" y="502" type="curve" smooth="yes"/>
      <point x="182" y="510"/>
      <point x="180" y="513"/>
      <point x="176" y="518" type="curve" smooth="yes"/>
      <point x="161" y="532"/>
      <point x="128" y="540"/>
      <point x="78" y="540" type="curve" smooth="yes"/>
      <point x="56" y="540" type="line"/>
      <point x="102" y="389"/>
      <point x="177" y="256"/>
      <point x="285" y="145" type="curve" smooth="yes"/>
      <point x="384" y="46"/>
      <point x="462" y="-10"/>
    </contour>
    <contour>
      <point x="542" y="511" type="curve" smooth="yes"/>
      <point x="522" y="531"/>
      <point x="485" y="540"/>
      <point x="453" y="540" type="curve" smooth="yes"/>
      <point x="435" y="540" type="line"/>
      <point x="392" y="396"/>
      <point x="362" y="337"/>
      <point x="284" y="276" type="curve"/>
      <point x="256" y="246"/>
      <point x="285" y="207"/>
      <point x="337" y="207" type="curve"/>
      <point x="455" y="303"/>
      <point x="512" y="385"/>
      <point x="546" y="488" type="curve" smooth="yes"/>
      <point x="549" y="499"/>
      <point x="548" y="505"/>
    </contour>
    <contour>
      <point x="52" y="19" type="curve" smooth="yes"/>
      <point x="72" y="-1"/>
      <point x="105" y="-10"/>
      <point x="138" y="-10" type="curve" smooth="yes"/>
      <point x="156" y="-10" type="line"/>
      <point x="184" y="79"/>
      <point x="216" y="139"/>
      <point x="293" y="200" type="curve"/>
      <point x="314" y="224"/>
      <point x="296" y="265"/>
      <point x="249" y="265" type="curve"/>
      <point x="115" y="174"/>
      <point x="59" y="94"/>
      <point x="48" y="41" type="curve" smooth="yes"/>
      <point x="45" y="30"/>
      <point x="47" y="25"/>
    </contour>
  </outline>
</glyph>
<glyph name="y" format="1">
  <advance width="600"/>
  <unicode hex="0079"/>
  <outline>
    <contour>
      <point x="163" y="518" type="curve" smooth="yes"/>
      <point x="148" y="533"/>
      <point x="106" y="540"/>
      <point x="70" y="540" type="curve" smooth="yes"/>
      <point x="52" y="540" type="line"/>
      <point x="64" y="391" type="line" smooth="yes"/>
      <point x="74" y="273"/>
      <point x="105" y="164"/>
      <point x="190" y="80" type="curve" smooth="yes"/>
      <point x="253" y="17"/>
      <point x="302" y="6"/>
      <point x="341" y="6" type="curve"/>
      <point x="363" y="6"/>
      <point x="384" y="31"/>
      <point x="383" y="96" type="curve"/>
      <point x="343" y="104"/>
      <point x="307" y="117"/>
      <point x="273" y="150" type="curve" smooth="yes"/>
      <point x="217" y="206"/>
      <point x="190" y="270"/>
      <point x="181" y="388" type="curve" smooth="yes"/>
      <point x="172" y="500" type="line" smooth="yes"/>
      <point x="171" y="509"/>
      <point x="169" y="512"/>
    </contour>
    <contour>
      <point x="539" y="504" type="curve" smooth="yes"/>
      <point x="519" y="524"/>
      <point x="486" y="540"/>
      <point x="451" y="540" type="curve" smooth="yes"/>
      <point x="433" y="540" type="line"/>
      <point x="421" y="414" type="line" smooth="yes"/>
      <point x="398" y="165"/>
      <point x="359" y="37"/>
      <point x="239" y="-83" type="curve" smooth="yes"/>
      <point x="212" y="-111"/>
      <point x="183" y="-138"/>
      <point x="123" y="-181" type="curve"/>
      <point x="123" y="-220"/>
      <point x="139" y="-250"/>
      <point x="172" y="-250" type="curve" smooth="yes"/>
      <point x="206" y="-250"/>
      <point x="246" y="-238"/>
      <point x="288" y="-196" type="curve" smooth="yes"/>
      <point x="435" y="-50"/>
      <point x="511" y="124"/>
      <point x="534" y="376" type="curve" smooth="yes"/>
      <point x="544" y="483" type="line" smooth="yes"/>
      <point x="545" y="493"/>
      <point x="544" y="500"/>
    </contour>
    <contour>
      <point x="58" y="-140" type="curve"/>
      <point x="58" y="-159" type="line" smooth="yes"/>
      <point x="58" y="-194"/>
      <point x="66" y="-224"/>
      <point x="85" y="-243" type="curve" smooth="yes"/>
      <point x="90" y="-248"/>
      <point x="93" y="-250"/>
      <point x="100" y="-250" type="curve"/>
      <point x="131" y="-250"/>
      <point x="141" y="-250"/>
      <point x="172" y="-250" type="curve" smooth="yes"/>
      <point x="220" y="-250"/>
      <point x="260" y="-194"/>
      <point x="264" y="-140" type="curve"/>
      <point x="203" y="-140"/>
      <point x="117" y="-140"/>
    </contour>
  </outline>
</glyph>
<glyph name="z" format="1">
  <advance width="600"/>
  <unicode hex="007A"/>
  <outline>
    <contour>
      <point x="66" y="530" type="curve"/>
      <point x="66" y="511" type="line" smooth="yes"/>
      <point x="66" y="475"/>
      <point x="74" y="446"/>
      <point x="93" y="427" type="curve" smooth="yes"/>
      <point x="98" y="422"/>
      <point x="101" y="420"/>
      <point x="108" y="420" type="curve"/>
      <point x="161" y="420"/>
      <point x="203" y="420"/>
      <point x="256" y="420" type="curve" smooth="yes"/>
      <point x="339" y="420"/>
      <point x="451" y="420"/>
      <point x="534" y="420" type="curve"/>
      <point x="534" y="461"/>
      <point x="518" y="500"/>
      <point x="495" y="523" type="curve" smooth="yes"/>
      <point x="490" y="528"/>
      <point x="487" y="530"/>
      <point x="480" y="530" type="curve" smooth="yes"/>
      <point x="347" y="530"/>
      <point x="199" y="530"/>
    </contour>
    <contour>
      <point x="530" y="433" type="curve" smooth="yes"/>
      <point x="504" y="459"/>
      <point x="489" y="477"/>
      <point x="447" y="477" type="curve"/>
      <point x="359" y="339"/>
      <point x="209" y="199"/>
      <point x="66" y="110" type="curve"/>
      <point x="66" y="77"/>
      <point x="87" y="63"/>
      <point x="107" y="63" type="curve" smooth="yes"/>
      <point x="134" y="63"/>
      <point x="147" y="67"/>
      <point x="171" y="78" type="curve" smooth="yes"/>
      <point x="347" y="172"/>
      <point x="534" y="374"/>
      <point x="534" y="420" type="curve" smooth="yes"/>
      <point x="534" y="426"/>
      <point x="533" y="430"/>
    </contour>
    <contour>
      <point x="534" y="0" type="curve"/>
      <point x="534" y="19" type="line" smooth="yes"/>
      <point x="534" y="41"/>
      <point x="518" y="80"/>
      <point x="495" y="103" type="curve" smooth="yes"/>
      <point x="490" y="108"/>
      <point x="487" y="110"/>
      <point x="480" y="110" type="curve" smooth="yes"/>
      <point x="347" y="110"/>
      <point x="199" y="110"/>
      <point x="66" y="110" type="curve"/>
      <point x="66" y="91" type="line" smooth="yes"/>
      <point x="66" y="55"/>
      <point x="74" y="26"/>
      <point x="93" y="7" type="curve" smooth="yes"/>
      <point x="98" y="2"/>
      <point x="101" y="0"/>
      <point x="108" y="0" type="curve"/>
      <point x="161" y="0"/>
      <point x="203" y="0"/>
      <point x="256" y="0" type="curve" smooth="yes"/>
      <point x="339" y="0"/>
      <point x="451" y="0"/>
    </contour>
  </outline>
</glyph>
<glyph name="f.ss01" format="1">
  <advance width="600"/>
  <outline>
    <contour>
      <point x="232" y="623" type="curve"/>
      <point x="279" y="656"/>
      <point x="332" y="664"/>
      <point x="400" y="664" type="curve" smooth="yes"/>
      <point x="462" y="664"/>
      <point x="515" y="650"/>
      <point x="546" y="635" type="curve"/>
      <point x="565" y="635" type="line"/>
      <point x="565" y="656" type="line"/>
      <point x="565" y="693"/>
      <point x="556" y="722"/>
      <point x="545" y="735" type="curve" smooth="yes"/>
      <point x="532" y="748"/>
      <point x="487" y="765"/>
      <point x="444" y="765" type="curve"/>
      <point x="386" y="765" type="line"/>
      <point x="322" y="765"/>
      <point x="274" y="753"/>
      <point x="226" y="704" type="curve" smooth="yes"/>
      <point x="203" y="682"/>
      <point x="204" y="645"/>
    </contour>
    <contour>
      <point x="280" y="21" type="line"/>
      <point x="280" y="211"/>
      <point x="280" y="358"/>
      <point x="280" y="530" type="curve" smooth="yes"/>
      <point x="280" y="586"/>
      <point x="267" y="662"/>
      <point x="287" y="719" type="curve"/>
      <point x="263" y="732"/>
      <point x="245" y="724"/>
      <point x="226" y="704" type="curve" smooth="yes"/>
      <point x="185" y="664"/>
      <point x="170" y="630"/>
      <point x="170" y="574" type="curve"/>
      <point x="170" y="438"/>
      <point x="170" y="250"/>
      <point x="170" y="63" type="curve"/>
      <point x="170" y="56"/>
      <point x="172" y="53"/>
      <point x="177" y="48" type="curve" smooth="yes"/>
      <point x="196" y="29"/>
      <point x="226" y="21"/>
      <point x="261" y="21" type="curve" smooth="yes"/>
    </contour>
    <contour>
      <point x="35" y="530" type="curve"/>
      <point x="35" y="511" type="line" smooth="yes"/>
      <point x="35" y="474"/>
      <point x="44" y="445"/>
      <point x="62" y="427" type="curve" smooth="yes"/>
      <point x="68" y="421"/>
      <point x="71" y="420"/>
      <point x="77" y="420" type="curve"/>
      <point x="129" y="420"/>
      <point x="190" y="420"/>
      <point x="241" y="420" type="curve"/>
      <point x="294" y="420"/>
      <point x="470" y="420"/>
      <point x="515" y="420" type="curve"/>
      <point x="515" y="439" type="line" smooth="yes"/>
      <point x="515" y="477"/>
      <point x="506" y="505"/>
      <point x="488" y="523" type="curve" smooth="yes"/>
      <point x="482" y="529"/>
      <point x="479" y="530"/>
      <point x="473" y="530" type="curve" smooth="yes"/>
      <point x="376" y="530"/>
      <point x="132" y="530"/>
    </contour>
    <contour>
      <point x="50" y="110" type="curve"/>
      <point x="50" y="91" type="line" smooth="yes"/>
      <point x="50" y="54"/>
      <point x="59" y="25"/>
      <point x="77" y="7" type="curve" smooth="yes"/>
      <point x="83" y="1"/>
      <point x="86" y="0"/>
      <point x="92" y="0" type="curve"/>
      <point x="147" y="0"/>
      <point x="202" y="0"/>
      <point x="256" y="0" type="curve"/>
      <point x="345" y="0"/>
      <point x="411" y="0"/>
      <point x="500" y="0" type="curve"/>
      <point x="500" y="19" type="line" smooth="yes"/>
      <point x="500" y="43"/>
      <point x="481" y="83"/>
      <point x="461" y="103" type="curve" smooth="yes"/>
      <point x="455" y="109"/>
      <point x="452" y="110"/>
      <point x="446" y="110" type="curve" smooth="yes"/>
      <point x="306" y="110"/>
      <point x="190" y="110"/>
    </contour>
  </outline>
</glyph>
<glyph name="r.ss01" format="1">
  <advance width="600"/>
  <outline>
    <contour>
      <point x="50" y="525" type="curve"/>
      <point x="50" y="508" type="line" smooth="yes"/>
      <point x="50" y="476"/>
      <point x="58" y="449"/>
      <point x="75" y="432" type="curve" smooth="yes"/>
      <point x="79" y="427"/>
      <point x="83" y="425"/>
      <point x="89" y="425" type="curve"/>
      <point x="133" y="425"/>
      <point x="165" y="425"/>
      <point x="209" y="425" type="curve"/>
      <point x="209" y="443" type="line" smooth="yes"/>
      <point x="209" y="474"/>
      <point x="201" y="525"/>
      <point x="164" y="525" type="curve" smooth="yes"/>
      <point x="120" y="525"/>
      <point x="94" y="525"/>
    </contour>
    <contour>
      <point x="250" y="32" type="line"/>
      <point x="250" y="149"/>
      <point x="250" y="265"/>
      <point x="250" y="381" type="curve"/>
      <point x="250" y="450"/>
      <point x="212" y="525"/>
      <point x="168" y="525" type="curve" smooth="yes"/>
      <point x="150" y="525" type="line"/>
      <point x="150" y="439"/>
      <point x="150" y="295"/>
      <point x="150" y="216" type="curve" smooth="yes"/>
      <point x="150" y="168"/>
      <point x="150" y="119"/>
      <point x="150" y="71" type="curve"/>
      <point x="150" y="65"/>
      <point x="152" y="61"/>
      <point x="157" y="57" type="curve" smooth="yes"/>
      <point x="174" y="40"/>
      <point x="201" y="32"/>
      <point x="233" y="32" type="curve" smooth="yes"/>
    </contour>
    <contour>
      <point x="50" y="100" type="curve"/>
      <point x="50" y="83" type="line" smooth="yes"/>
      <point x="50" y="51"/>
      <point x="58" y="24"/>
      <point x="75" y="7" type="curve" smooth="yes"/>
      <point x="79" y="2"/>
      <point x="83" y="0"/>
      <point x="89" y="0" type="curve"/>
      <point x="145" y="0"/>
      <point x="202" y="0"/>
      <point x="258" y="0" type="curve"/>
      <point x="334" y="0"/>
      <point x="349" y="0"/>
      <point x="425" y="0" type="curve"/>
      <point x="425" y="18" type="line" smooth="yes"/>
      <point x="425" y="50"/>
      <point x="418" y="77"/>
      <point x="401" y="94" type="curve" smooth="yes"/>
      <point x="396" y="98"/>
      <point x="393" y="100"/>
      <point x="386" y="100" type="curve"/>
      <point x="253" y="100"/>
      <point x="183" y="100"/>
    </contour>
    <contour>
      <point x="442" y="545" type="curve" smooth="yes"/>
      <point x="377" y="545"/>
      <point x="284" y="481"/>
      <point x="238" y="412" type="curve" smooth="yes"/>
      <point x="219" y="381"/>
      <point x="214" y="357"/>
      <point x="215" y="320" type="curve"/>
      <point x="297" y="415"/>
      <point x="354" y="442"/>
      <point x="414" y="442" type="curve" smooth="yes"/>
      <point x="456" y="442"/>
      <point x="487" y="425"/>
      <point x="517" y="393" type="curve"/>
      <point x="531" y="399"/>
      <point x="538" y="412"/>
      <point x="538" y="426" type="curve" smooth="yes"/>
      <point x="538" y="470"/>
      <point x="489" y="545"/>
    </contour>
    <contour>
      <point x="538" y="288" type="line"/>
      <point x="538" y="334"/>
      <point x="538" y="380"/>
      <point x="538" y="426" type="curve" smooth="yes"/>
      <point x="538" y="456"/>
      <point x="496" y="480"/>
      <point x="455" y="480" type="curve" smooth="yes"/>
      <point x="438" y="480" type="line"/>
      <point x="438" y="458"/>
      <point x="438" y="438"/>
      <point x="438" y="419" type="curve" smooth="yes"/>
      <point x="438" y="393"/>
      <point x="438" y="355"/>
      <point x="438" y="327" type="curve" smooth="yes"/>
      <point x="438" y="320"/>
      <point x="440" y="317"/>
      <point x="444" y="312" type="curve" smooth="yes"/>
      <point x="461" y="295"/>
      <point x="488" y="288"/>
      <point x="520" y="288" type="curve" smooth="yes"/>
    </contour>
  </outline>
</glyph>
